<?xml version="1.0" encoding="UTF-8"?>
<svg id="dgm0" width="100%" xmlns="http://www.w3.org/2000/svg" style="max-width: 1809.7734375px;" viewBox="-8 -6 1809.7734375 286.5" role="graphics-document document" aria-roledescription="flowchart-v2"><rect x="-100000" y="-100000" width="200000" height="200000" fill="#ffffff"/><style>#dgm0{font-family:Arial,"Liberation Sans",Helvetica,sans-serif;font-size:16px;fill:#000000;}#dgm0 .error-icon{fill:#552222;}#dgm0 .error-text{fill:#552222;stroke:#552222;}#dgm0 .edge-thickness-normal{stroke-width:2px;}#dgm0 .edge-thickness-thick{stroke-width:3.5px;}#dgm0 .edge-pattern-solid{stroke-dasharray:0;}#dgm0 .edge-pattern-dashed{stroke-dasharray:3;}#dgm0 .edge-pattern-dotted{stroke-dasharray:2;}#dgm0 .marker{fill:#666;stroke:#666;}#dgm0 .marker.cross{stroke:#666;}#dgm0 svg{font-family:Arial,"Liberation Sans",Helvetica,sans-serif;font-size:16px;}#dgm0 .label{font-family:Arial,"Liberation Sans",Helvetica,sans-serif;color:#000000;}#dgm0 .cluster-label text{fill:#333;}#dgm0 .cluster-label span,#dgm0 p{color:#333;}#dgm0 .label text,#dgm0 span,#dgm0 p{fill:#000000;color:#000000;}#dgm0 .node rect,#dgm0 .node circle,#dgm0 .node ellipse,#dgm0 .node polygon,#dgm0 .node path{fill:#eee;stroke:#999;stroke-width:1px;}#dgm0 .flowchart-label text{text-anchor:middle;}#dgm0 .node .katex path{fill:#000;stroke:#000;stroke-width:1px;}#dgm0 .node .label{text-align:center;}#dgm0 .node.clickable{cursor:pointer;}#dgm0 .arrowheadPath{fill:#333333;}#dgm0 .edgePath .path{stroke:#666;stroke-width:2.0px;}#dgm0 .flowchart-link{stroke:#666;fill:none;}#dgm0 .edgeLabel{background-color:white;text-align:center;}#dgm0 .edgeLabel rect{opacity:0.5;background-color:white;fill:white;}#dgm0 .labelBkg{background-color:rgba(255, 255, 255, 0.5);}#dgm0 .cluster rect{fill:hsl(0, 0%, 98.9215686275%);stroke:#707070;stroke-width:1px;}#dgm0 .cluster text{fill:#333;}#dgm0 .cluster span,#dgm0 p{color:#333;}#dgm0 div.mermaidTooltip{position:absolute;text-align:center;max-width:200px;padding:2px;font-family:Arial,"Liberation Sans",Helvetica,sans-serif;font-size:12px;background:hsl(-160, 0%, 93.3333333333%);border:1px solid #707070;border-radius:2px;pointer-events:none;z-index:100;}#dgm0 .flowchartTitleText{text-anchor:middle;font-size:18px;fill:#000000;}#dgm0 :root{--mermaid-font-family:Arial,"Liberation Sans",Helvetica,sans-serif;}#dgm0 .c rect{fill:rgb(225, 239, 236)!important;stroke:rgb(14, 107, 98)!important;color:rgb(17, 17, 17)!important;}#dgm0 .c polygon{fill:rgb(225, 239, 236)!important;stroke:rgb(14, 107, 98)!important;color:rgb(17, 17, 17)!important;}#dgm0 .c ellipse{fill:rgb(225, 239, 236)!important;stroke:rgb(14, 107, 98)!important;color:rgb(17, 17, 17)!important;}#dgm0 .c circle{fill:rgb(225, 239, 236)!important;stroke:rgb(14, 107, 98)!important;color:rgb(17, 17, 17)!important;}#dgm0 .c path{fill:rgb(225, 239, 236)!important;stroke:rgb(14, 107, 98)!important;color:rgb(17, 17, 17)!important;}#dgm0 .c tspan{fill:rgb(17, 17, 17)!important;}</style><g><marker id="dgm0_flowchart-pointEnd" class="marker flowchart" viewBox="0 0 10 10" refX="6" refY="5" markerUnits="userSpaceOnUse" markerWidth="12" markerHeight="12" orient="auto"><path d="M 0 0 L 10 5 L 0 10 z" class="arrowMarkerPath" style="stroke-width: 1; stroke-dasharray: 1, 0;"></path></marker><marker id="dgm0_flowchart-pointStart" class="marker flowchart" viewBox="0 0 10 10" refX="4.5" refY="5" markerUnits="userSpaceOnUse" markerWidth="12" markerHeight="12" orient="auto"><path d="M 0 5 L 10 10 L 10 0 z" class="arrowMarkerPath" style="stroke-width: 1; stroke-dasharray: 1, 0;"></path></marker><marker id="dgm0_flowchart-circleEnd" class="marker flowchart" viewBox="0 0 10 10" refX="11" refY="5" markerUnits="userSpaceOnUse" markerWidth="11" markerHeight="11" orient="auto"><circle cx="5" cy="5" r="5" class="arrowMarkerPath" style="stroke-width: 1; stroke-dasharray: 1, 0;"></circle></marker><marker id="dgm0_flowchart-circleStart" class="marker flowchart" viewBox="0 0 10 10" refX="-1" refY="5" markerUnits="userSpaceOnUse" markerWidth="11" markerHeight="11" orient="auto"><circle cx="5" cy="5" r="5" class="arrowMarkerPath" style="stroke-width: 1; stroke-dasharray: 1, 0;"></circle></marker><marker id="dgm0_flowchart-crossEnd" class="marker cross flowchart" viewBox="0 0 11 11" refX="12" refY="5.2" markerUnits="userSpaceOnUse" markerWidth="11" markerHeight="11" orient="auto"><path d="M 1,1 l 9,9 M 10,1 l -9,9" class="arrowMarkerPath" style="stroke-width: 2; stroke-dasharray: 1, 0;"></path></marker><marker id="dgm0_flowchart-crossStart" class="marker cross flowchart" viewBox="0 0 11 11" refX="-1" refY="5.2" markerUnits="userSpaceOnUse" markerWidth="11" markerHeight="11" orient="auto"><path d="M 1,1 l 9,9 M 10,1 l -9,9" class="arrowMarkerPath" style="stroke-width: 2; stroke-dasharray: 1, 0;"></path></marker><g class="root"><g class="clusters"></g><g class="edgePaths"><path d="M85.578,168L99.919,149.292C114.26,130.583,142.943,93.167,172.437,74.458C201.931,55.75,232.237,55.75,247.391,55.75L262.544,55.75" id="L-U-EDGE-0" class="edge-thickness-normal edge-pattern-solid flowchart-link LS-U LE-EDGE" style="fill:none;" marker-end="url(#dgm0_flowchart-pointEnd)"></path><path d="M373.109,55.75L389.146,55.75C405.182,55.75,437.255,55.75,456.6,56.546C475.944,57.342,482.56,58.934,485.867,59.73L489.175,60.526" id="L-EDGE-API-0" class="edge-thickness-normal edge-pattern-solid flowchart-link LS-EDGE LE-API" style="fill:none;" marker-end="url(#dgm0_flowchart-pointEnd)"></path><path d="M562.461,72.02L573.454,72.684C584.448,73.347,606.435,74.673,627.539,75.337C648.642,76,668.863,76,678.973,76L689.083,76" id="L-API-RD-0" class="edge-thickness-normal edge-pattern-solid flowchart-link LS-API LE-RD" style="fill:none;" marker-end="url(#dgm0_flowchart-pointEnd)"></path><path d="M554.433,53.965L566.764,46.387C579.096,38.81,603.759,23.655,645.305,16.077C686.852,8.5,745.281,8.5,809.409,8.5C873.536,8.5,943.362,8.5,994.092,10.847C1044.823,13.193,1076.458,17.886,1092.276,20.233L1108.093,22.579" id="L-API-WR-0" class="edge-thickness-normal edge-pattern-solid flowchart-link LS-API LE-WR" style="fill:none;" marker-end="url(#dgm0_flowchart-pointEnd)"></path><path d="M913.039,76L929.73,76C946.422,76,979.805,76,1012.324,72.629C1044.842,69.259,1076.497,62.518,1092.325,59.147L1108.152,55.776" id="L-RD-WR-0" class="edge-thickness-normal edge-pattern-dotted flowchart-link LS-RD LE-WR" style="fill:none;stroke-width:2px;stroke-dasharray:3;" marker-end="url(#dgm0_flowchart-pointEnd)"></path><path d="M1286.68,36.215L1290.846,36.215C1295.013,36.215,1303.346,36.215,1318.938,52.586C1334.53,68.958,1357.38,101.701,1368.805,118.072L1380.23,134.443" id="L-WR-DB-0" class="edge-thickness-normal edge-pattern-solid flowchart-link LS-WR LE-DB" style="fill:none;" marker-end="url(#dgm0_flowchart-pointEnd)"></path><path d="M1480.617,174L1493.457,174C1506.297,174,1531.977,174,1559.471,179.522C1586.965,185.044,1616.273,196.087,1630.928,201.609L1645.582,207.131" id="L-DB-RT-0" class="edge-thickness-normal edge-pattern-solid flowchart-link LS-DB LE-RT" style="fill:none;" marker-end="url(#dgm0_flowchart-pointEnd)"></path><path d="M1634.695,253.065L1621.855,256.304C1609.016,259.544,1583.336,266.022,1545.661,269.261C1507.987,272.5,1458.318,272.5,1417.322,272.5C1376.326,272.5,1344.003,272.5,1309.229,272.5C1274.456,272.5,1237.232,272.5,1187.483,272.5C1137.734,272.5,1075.461,272.5,1009.411,272.5C943.362,272.5,873.536,272.5,809.409,272.5C745.281,272.5,686.852,272.5,640.965,272.5C595.079,272.5,561.737,272.5,535.221,272.5C508.706,272.5,489.017,272.5,454.364,272.5C419.711,272.5,370.094,272.5,320.477,272.5C270.859,272.5,221.242,272.5,183.667,261.008C146.092,249.515,120.559,226.531,107.792,215.038L95.026,203.546" id="L-RT-U-0" class="edge-thickness-normal edge-pattern-solid flowchart-link LS-RT LE-U" style="fill:none;" marker-end="url(#dgm0_flowchart-pointEnd)"></path><path d="M548.773,85.965L562.048,96.387C575.323,106.81,601.872,127.655,625.339,139.56C648.806,151.465,669.191,154.431,679.383,155.914L689.576,157.396" id="L-API-JOB-0" class="edge-thickness-normal edge-pattern-solid flowchart-link LS-API LE-JOB" style="fill:none;" marker-end="url(#dgm0_flowchart-pointEnd)"></path><path d="M912.602,174L929.366,174C946.13,174,979.659,174,1027.56,174C1075.461,174,1137.734,174,1187.483,174C1237.232,174,1274.456,174,1296.351,174C1318.246,174,1324.813,174,1328.096,174L1331.38,174" id="L-JOB-DB-0" class="edge-thickness-normal edge-pattern-solid flowchart-link LS-JOB LE-DB" style="fill:none;" marker-end="url(#dgm0_flowchart-pointEnd)"></path><path d="M379.77,189L394.696,182.958C409.623,176.917,439.475,164.833,461.831,148.38C484.186,131.926,499.043,111.103,506.472,100.691L513.9,90.279" id="L-REL-API-0" class="edge-thickness-normal edge-pattern-dotted flowchart-link LS-REL LE-API" style="fill:none;stroke-width:2px;stroke-dasharray:3;" marker-end="url(#dgm0_flowchart-pointEnd)"></path><path d="M444.328,229.641L448.495,230.201C452.661,230.761,460.995,231.88,475.006,232.44C489.017,233,508.706,233,535.221,233C561.737,233,595.079,233,640.965,233C686.852,233,745.281,233,809.409,233C873.536,233,943.362,233,1009.411,233C1075.461,233,1137.734,233,1187.483,233C1237.232,233,1274.456,233,1298.646,228.748C1322.837,224.496,1333.993,215.993,1339.572,211.741L1345.15,207.489" id="L-REL-DB-0" class="edge-thickness-normal edge-pattern-dotted flowchart-link LS-REL LE-DB" style="fill:none;stroke-width:2px;stroke-dasharray:3;" marker-end="url(#dgm0_flowchart-pointEnd)"></path><path d="M444.328,192.407L448.495,191.714C452.661,191.021,460.995,189.636,475.006,188.943C489.017,188.25,508.706,188.25,535.221,188.25C561.737,188.25,595.079,188.25,621.937,187.422C648.794,186.594,669.166,184.938,679.352,184.11L689.538,183.282" id="L-REL-JOB-0" class="edge-thickness-normal edge-pattern-dotted flowchart-link LS-REL LE-JOB" style="fill:none;stroke-width:2px;stroke-dasharray:3;" marker-end="url(#dgm0_flowchart-pointEnd)"></path></g><g class="edgeLabels"><g class="edgeLabel"><g class="label" transform="translate(0, 0)"><rect rx="0" ry="0" width="0" height="0"></rect><text style=""><tspan xml:space="preserve" dy="1em" x="0" class="row"></tspan></text></g></g><g class="edgeLabel"><g class="label" transform="translate(0, 0)"><rect rx="0" ry="0" width="0" height="0"></rect><text style=""><tspan xml:space="preserve" dy="1em" x="0" class="row"></tspan></text></g></g><g class="edgeLabel" transform="translate(628.421875, 76)"><g class="label" transform="translate(-20.015625, -8.5)"><rect rx="0" ry="0" width="40.562049865722656" height="17.18194580078125"></rect><text style=""><tspan xml:space="preserve" dy="1em" x="0" class="row">reads</tspan></text></g></g><g class="edgeLabel" transform="translate(803.7109375, 8.5)"><g class="label" transform="translate(-21.390625, -8.5)"><rect rx="0" ry="0" width="43.748817443847656" height="17.18194580078125"></rect><text style=""><tspan xml:space="preserve" dy="1em" x="0" class="row">writes</tspan></text></g></g><g class="edgeLabel" transform="translate(1013.1875, 76)"><g class="label" transform="translate(-75.1484375, -8.5)"><rect rx="0" ry="0" width="150.6473846435547" height="17.18194580078125"></rect><text style=""><tspan xml:space="preserve" dy="1em" x="0" class="row">split reads and writes</tspan></text></g></g><g class="edgeLabel"><g class="label" transform="translate(0, 0)"><rect rx="0" ry="0" width="0" height="0"></rect><text style=""><tspan xml:space="preserve" dy="1em" x="0" class="row"></tspan></text></g></g><g class="edgeLabel" transform="translate(1557.65625, 174)"><g class="label" transform="translate(-52.0390625, -8.5)"><rect rx="0" ry="0" width="104.51200866699219" height="17.18194580078125"></rect><text style=""><tspan xml:space="preserve" dy="1em" x="0" class="row">change events</tspan></text></g></g><g class="edgeLabel"><g class="label" transform="translate(0, 0)"><rect rx="0" ry="0" width="0" height="0"></rect><text style=""><tspan xml:space="preserve" dy="1em" x="0" class="row"></tspan></text></g></g><g class="edgeLabel" transform="translate(628.421875, 148.5)"><g class="label" transform="translate(-40.9609375, -8.5)"><rect rx="0" ry="0" width="81.39361572265625" height="17.18194580078125"></rect><text style=""><tspan xml:space="preserve" dy="1em" x="0" class="row">heavy work</tspan></text></g></g><g class="edgeLabel"><g class="label" transform="translate(0, 0)"><rect rx="0" ry="0" width="0" height="0"></rect><text style=""><tspan xml:space="preserve" dy="1em" x="0" class="row"></tspan></text></g></g><g class="edgeLabel"><g class="label" transform="translate(0, 0)"><rect rx="0" ry="0" width="0" height="0"></rect><text style=""><tspan xml:space="preserve" dy="1em" x="0" class="row"></tspan></text></g></g><g class="edgeLabel"><g class="label" transform="translate(0, 0)"><rect rx="0" ry="0" width="0" height="0"></rect><text style=""><tspan xml:space="preserve" dy="1em" x="0" class="row"></tspan></text></g></g><g class="edgeLabel"><g class="label" transform="translate(0, 0)"><rect rx="0" ry="0" width="0" height="0"></rect><text style=""><tspan xml:space="preserve" dy="1em" x="0" class="row"></tspan></text></g></g></g><g class="nodes"><g class="node default default flowchart-label" id="flowchart-U-0" data-node="true" data-id="U" transform="translate(73.3125, 184)"><rect class="basic label-container" style="" rx="0" ry="0" x="-73.3125" y="-16" width="146.625" height="32"></rect><g class="label" style="" transform="translate(0, -8.5)"><rect></rect><text style=""><tspan xml:space="preserve" dy="1em" x="0" class="row">Users and devices</tspan></text></g></g><g class="node default default flowchart-label" id="flowchart-EDGE-1" data-node="true" data-id="EDGE" transform="translate(320.4765625, 55.75)"><rect class="basic label-container" style="" rx="0" ry="0" x="-52.6328125" y="-16" width="105.265625" height="32"></rect><g class="label" style="" transform="translate(0, -8.5)"><rect></rect><text style=""><tspan xml:space="preserve" dy="1em" x="0" class="row">Edge + CDN</tspan></text></g></g><g class="node default default flowchart-label" id="flowchart-API-3" data-node="true" data-id="API" transform="translate(528.39453125, 69.9648494720459)"><rect class="basic label-container" style="" rx="0" ry="0" x="-34.06640625" y="-16" width="68.1328125" height="32"></rect><g class="label" style="" transform="translate(0, -8.5)"><rect></rect><text style=""><tspan xml:space="preserve" dy="1em" x="0" class="row">API tier</tspan></text></g></g><g class="node default c flowchart-label" id="flowchart-RD-5" data-node="true" data-id="RD" transform="translate(803.7109375, 76)"><rect class="basic label-container" style="" rx="0" ry="0" x="-109.328125" y="-24" width="218.65625" height="48"></rect><g class="label" style="" transform="translate(0, -16.5)"><rect></rect><text style=""><tspan xml:space="preserve" dy="1em" x="0" class="row">Scale reads</tspan><tspan xml:space="preserve" dy="1em" x="0" class="row">cache, replicas, read models</tspan></text></g></g><g class="node default c flowchart-label" id="flowchart-WR-7" data-node="true" data-id="WR" transform="translate(1200.0078125, 36.2148494720459)"><rect class="basic label-container" style="" rx="0" ry="0" x="-86.671875" y="-24" width="173.34375" height="48"></rect><g class="label" style="" transform="translate(0, -16.5)"><rect></rect><text style=""><tspan xml:space="preserve" dy="1em" x="0" class="row">Scale writes</tspan><tspan xml:space="preserve" dy="1em" x="0" class="row">queue, batch, partition</tspan></text></g></g><g class="node default default flowchart-label" id="flowchart-DB-11" data-node="true" data-id="DB" transform="translate(1408.6484375, 174)"><path style="" d="M 0,13.380199860562398 a 71.96875,13.380199860562398 0,0,0 143.9375 0 a 71.96875,13.380199860562398 0,0,0 -143.9375 0 l 0,45.3801998605624 a 71.96875,13.380199860562398 0,0,0 143.9375 0 l 0,-45.3801998605624" transform="translate(-71.96875,-36.0702997908436)"></path><g class="label" style="" transform="translate(0, -8.5)"><rect></rect><text style=""><tspan xml:space="preserve" dy="1em" x="0" class="row">Systems of record</tspan></text></g></g><g class="node default c flowchart-label" id="flowchart-RT-13" data-node="true" data-id="RT" transform="translate(1714.234375, 233)"><rect class="basic label-container" style="" rx="0" ry="0" x="-79.5390625" y="-24" width="159.078125" height="48"></rect><g class="label" style="" transform="translate(0, -16.5)"><rect></rect><text style=""><tspan xml:space="preserve" dy="1em" x="0" class="row">Real-time data</tspan><tspan xml:space="preserve" dy="1em" x="0" class="row">CDC, pub/sub, push</tspan></text></g></g><g class="node default c flowchart-label" id="flowchart-JOB-17" data-node="true" data-id="JOB" transform="translate(803.7109375, 174)"><rect class="basic label-container" style="" rx="0" ry="0" x="-108.890625" y="-24" width="217.78125" height="48"></rect><g class="label" style="" transform="translate(0, -16.5)"><rect></rect><text style=""><tspan xml:space="preserve" dy="1em" x="0" class="row">Long-running jobs</tspan><tspan xml:space="preserve" dy="1em" x="0" class="row">queue, workers, checkpoints</tspan></text></g></g><g class="node default c flowchart-label" id="flowchart-REL-20" data-node="true" data-id="REL" transform="translate(320.4765625, 213)"><rect class="basic label-container" style="" rx="0" ry="0" x="-123.8515625" y="-24" width="247.703125" height="48"></rect><g class="label" style="" transform="translate(0, -16.5)"><rect></rect><text style=""><tspan xml:space="preserve" dy="1em" x="0" class="row">Reliability</tspan><tspan xml:space="preserve" dy="1em" x="0" class="row">SLOs, redundancy, timeouts, DR</tspan></text></g></g></g></g></g></svg>