<?xml version="1.0" encoding="UTF-8"?>
<svg id="dgm11" width="100%" xmlns="http://www.w3.org/2000/svg" style="max-width: 1038.5625px;" viewBox="-8 -8 1038.5625 364" role="graphics-document document" aria-roledescription="flowchart-v2"><rect x="-100000" y="-100000" width="200000" height="200000" fill="#ffffff"/><style>#dgm11{font-family:Arial,"Liberation Sans",Helvetica,sans-serif;font-size:16px;fill:#000000;}#dgm11 .error-icon{fill:#552222;}#dgm11 .error-text{fill:#552222;stroke:#552222;}#dgm11 .edge-thickness-normal{stroke-width:2px;}#dgm11 .edge-thickness-thick{stroke-width:3.5px;}#dgm11 .edge-pattern-solid{stroke-dasharray:0;}#dgm11 .edge-pattern-dashed{stroke-dasharray:3;}#dgm11 .edge-pattern-dotted{stroke-dasharray:2;}#dgm11 .marker{fill:#666;stroke:#666;}#dgm11 .marker.cross{stroke:#666;}#dgm11 svg{font-family:Arial,"Liberation Sans",Helvetica,sans-serif;font-size:16px;}#dgm11 .label{font-family:Arial,"Liberation Sans",Helvetica,sans-serif;color:#000000;}#dgm11 .cluster-label text{fill:#333;}#dgm11 .cluster-label span,#dgm11 p{color:#333;}#dgm11 .label text,#dgm11 span,#dgm11 p{fill:#000000;color:#000000;}#dgm11 .node rect,#dgm11 .node circle,#dgm11 .node ellipse,#dgm11 .node polygon,#dgm11 .node path{fill:#eee;stroke:#999;stroke-width:1px;}#dgm11 .flowchart-label text{text-anchor:middle;}#dgm11 .node .katex path{fill:#000;stroke:#000;stroke-width:1px;}#dgm11 .node .label{text-align:center;}#dgm11 .node.clickable{cursor:pointer;}#dgm11 .arrowheadPath{fill:#333333;}#dgm11 .edgePath .path{stroke:#666;stroke-width:2.0px;}#dgm11 .flowchart-link{stroke:#666;fill:none;}#dgm11 .edgeLabel{background-color:white;text-align:center;}#dgm11 .edgeLabel rect{opacity:0.5;background-color:white;fill:white;}#dgm11 .labelBkg{background-color:rgba(255, 255, 255, 0.5);}#dgm11 .cluster rect{fill:hsl(0, 0%, 98.9215686275%);stroke:#707070;stroke-width:1px;}#dgm11 .cluster text{fill:#333;}#dgm11 .cluster span,#dgm11 p{color:#333;}#dgm11 div.mermaidTooltip{position:absolute;text-align:center;max-width:200px;padding:2px;font-family:Arial,"Liberation Sans",Helvetica,sans-serif;font-size:12px;background:hsl(-160, 0%, 93.3333333333%);border:1px solid #707070;border-radius:2px;pointer-events:none;z-index:100;}#dgm11 .flowchartTitleText{text-anchor:middle;font-size:18px;fill:#000000;}#dgm11 :root{--mermaid-font-family:Arial,"Liberation Sans",Helvetica,sans-serif;}</style><g><marker id="dgm11_flowchart-pointEnd" class="marker flowchart" viewBox="0 0 10 10" refX="6" refY="5" markerUnits="userSpaceOnUse" markerWidth="12" markerHeight="12" orient="auto"><path d="M 0 0 L 10 5 L 0 10 z" class="arrowMarkerPath" style="stroke-width: 1; stroke-dasharray: 1, 0;"></path></marker><marker id="dgm11_flowchart-pointStart" class="marker flowchart" viewBox="0 0 10 10" refX="4.5" refY="5" markerUnits="userSpaceOnUse" markerWidth="12" markerHeight="12" orient="auto"><path d="M 0 5 L 10 10 L 10 0 z" class="arrowMarkerPath" style="stroke-width: 1; stroke-dasharray: 1, 0;"></path></marker><marker id="dgm11_flowchart-circleEnd" class="marker flowchart" viewBox="0 0 10 10" refX="11" refY="5" markerUnits="userSpaceOnUse" markerWidth="11" markerHeight="11" orient="auto"><circle cx="5" cy="5" r="5" class="arrowMarkerPath" style="stroke-width: 1; stroke-dasharray: 1, 0;"></circle></marker><marker id="dgm11_flowchart-circleStart" class="marker flowchart" viewBox="0 0 10 10" refX="-1" refY="5" markerUnits="userSpaceOnUse" markerWidth="11" markerHeight="11" orient="auto"><circle cx="5" cy="5" r="5" class="arrowMarkerPath" style="stroke-width: 1; stroke-dasharray: 1, 0;"></circle></marker><marker id="dgm11_flowchart-crossEnd" class="marker cross flowchart" viewBox="0 0 11 11" refX="12" refY="5.2" markerUnits="userSpaceOnUse" markerWidth="11" markerHeight="11" orient="auto"><path d="M 1,1 l 9,9 M 10,1 l -9,9" class="arrowMarkerPath" style="stroke-width: 2; stroke-dasharray: 1, 0;"></path></marker><marker id="dgm11_flowchart-crossStart" class="marker cross flowchart" viewBox="0 0 11 11" refX="-1" refY="5.2" markerUnits="userSpaceOnUse" markerWidth="11" markerHeight="11" orient="auto"><path d="M 1,1 l 9,9 M 10,1 l -9,9" class="arrowMarkerPath" style="stroke-width: 2; stroke-dasharray: 1, 0;"></path></marker><g class="root"><g class="clusters"><g class="cluster default flowchart-label" id="BASE"><rect style="" rx="0" ry="0" x="777.15234375" y="0" width="245.1328125" height="348"></rect><g class="cluster-label" transform="translate(899.71875, 0)"><text style=""><tspan xml:space="preserve" dy="1em" x="0" class="row">BASE zone - eventually consistent</tspan></text></g></g><g class="cluster default flowchart-label" id="ACID"><rect style="" rx="0" ry="0" x="0" y="123" width="494.0546875" height="102"></rect><g class="cluster-label" transform="translate(247.02734375, 123)"><text style=""><tspan xml:space="preserve" dy="1em" x="0" class="row">ACID boundary - one partition, one transaction</tspan></text></g></g></g><g class="edgePaths"><path d="M151.305,174L155.471,174C159.638,174,167.971,174,176.305,174C184.638,174,192.971,174,197.138,174L201.305,174" id="L-BAL-POST-0" class="edge-thickness-normal edge-pattern-solid flowchart-link LS-BAL LE-POST" style="fill:none;"></path><path d="M321.797,174L325.964,174C330.13,174,338.464,174,346.797,174C355.13,174,363.464,174,367.63,174L371.797,174" id="L-POST-OUT-0" class="edge-thickness-normal edge-pattern-solid flowchart-link LS-POST LE-OUT" style="fill:none;"></path><path d="M469.055,174L473.221,174C477.388,174,485.721,174,505.303,174C524.884,174,555.714,174,585.66,174C615.606,174,644.668,174,659.2,174L673.731,174" id="L-OUT-BUS-0" class="edge-thickness-normal edge-pattern-solid flowchart-link LS-OUT LE-BUS" style="fill:none;" marker-end="url(#dgm11_flowchart-pointEnd)"></path><path d="M730.965,158L740.835,140.167C750.706,122.333,770.447,86.667,784.484,68.833C798.521,51,806.854,51,815.713,51C824.572,51,833.956,51,838.648,51L843.341,51" id="L-BUS-N-0" class="edge-thickness-normal edge-pattern-solid flowchart-link LS-BUS LE-N" style="fill:none;" marker-end="url(#dgm11_flowchart-pointEnd)"></path><path d="M748.676,158L755.595,153.833C762.513,149.667,776.35,141.333,787.436,137.167C798.521,133,806.854,133,816.231,133C825.608,133,836.029,133,841.24,133L846.45,133" id="L-BUS-ST-0" class="edge-thickness-normal edge-pattern-solid flowchart-link LS-BUS LE-ST" style="fill:none;" marker-end="url(#dgm11_flowchart-pointEnd)"></path><path d="M748.676,190L755.595,194.167C762.513,198.333,776.35,206.667,787.436,210.833C798.521,215,806.854,215,817.64,215C828.426,215,841.665,215,848.284,215L854.903,215" id="L-BUS-AN-0" class="edge-thickness-normal edge-pattern-solid flowchart-link LS-BUS LE-AN" style="fill:none;" marker-end="url(#dgm11_flowchart-pointEnd)"></path><path d="M730.965,190L740.835,207.833C750.706,225.667,770.447,261.333,784.484,279.167C798.521,297,806.854,297,814.304,297C821.754,297,828.321,297,831.604,297L834.888,297" id="L-BUS-FR-0" class="edge-thickness-normal edge-pattern-solid flowchart-link LS-BUS LE-FR" style="fill:none;" marker-end="url(#dgm11_flowchart-pointEnd)"></path></g><g class="edgeLabels"><g class="edgeLabel"><g class="label" transform="translate(0, 0)"><rect rx="0" ry="0" width="0" height="0"></rect><text style=""><tspan xml:space="preserve" dy="1em" x="0" class="row"></tspan></text></g></g><g class="edgeLabel"><g class="label" transform="translate(0, 0)"><rect rx="0" ry="0" width="0" height="0"></rect><text style=""><tspan xml:space="preserve" dy="1em" x="0" class="row"></tspan></text></g></g><g class="edgeLabel" transform="translate(586.54296875, 174)"><g class="label" transform="translate(-67.48828125, -8.5)"><rect rx="0" ry="0" width="134.9765625" height="17"></rect><text style=""><tspan xml:space="preserve" dy="1em" x="0" class="row">relay, at-least-once</tspan></text></g></g><g class="edgeLabel"><g class="label" transform="translate(0, 0)"><rect rx="0" ry="0" width="0" height="0"></rect><text style=""><tspan xml:space="preserve" dy="1em" x="0" class="row"></tspan></text></g></g><g class="edgeLabel"><g class="label" transform="translate(0, 0)"><rect rx="0" ry="0" width="0" height="0"></rect><text style=""><tspan xml:space="preserve" dy="1em" x="0" class="row"></tspan></text></g></g><g class="edgeLabel"><g class="label" transform="translate(0, 0)"><rect rx="0" ry="0" width="0" height="0"></rect><text style=""><tspan xml:space="preserve" dy="1em" x="0" class="row"></tspan></text></g></g><g class="edgeLabel"><g class="label" transform="translate(0, 0)"><rect rx="0" ry="0" width="0" height="0"></rect><text style=""><tspan xml:space="preserve" dy="1em" x="0" class="row"></tspan></text></g></g></g><g class="nodes"><g class="node default default flowchart-label" id="flowchart-N-216" data-node="true" data-id="N" transform="translate(899.71875, 51)"><rect class="basic label-container" style="" rx="0" ry="0" x="-51.078125" y="-16" width="102.15625" height="32"></rect><g class="label" style="" transform="translate(0, -8.5)"><rect></rect><text style=""><tspan xml:space="preserve" dy="1em" x="0" class="row">Notifications</tspan></text></g></g><g class="node default default flowchart-label" id="flowchart-ST-217" data-node="true" data-id="ST" transform="translate(899.71875, 133)"><rect class="basic label-container" style="" rx="0" ry="0" x="-47.96875" y="-16" width="95.9375" height="32"></rect><g class="label" style="" transform="translate(0, -8.5)"><rect></rect><text style=""><tspan xml:space="preserve" dy="1em" x="0" class="row">Statements</tspan></text></g></g><g class="node default default flowchart-label" id="flowchart-AN-218" data-node="true" data-id="AN" transform="translate(899.71875, 215)"><rect class="basic label-container" style="" rx="0" ry="0" x="-39.515625" y="-16" width="79.03125" height="32"></rect><g class="label" style="" transform="translate(0, -8.5)"><rect></rect><text style=""><tspan xml:space="preserve" dy="1em" x="0" class="row">Analytics</tspan></text></g></g><g class="node default default flowchart-label" id="flowchart-FR-219" data-node="true" data-id="FR" transform="translate(899.71875, 297)"><rect class="basic label-container" style="" rx="0" ry="0" x="-59.53125" y="-16" width="119.0625" height="32"></rect><g class="label" style="" transform="translate(0, -8.5)"><rect></rect><text style=""><tspan xml:space="preserve" dy="1em" x="0" class="row">Fraud features</tspan></text></g></g><g class="node default default flowchart-label" id="flowchart-OUT-213" data-node="true" data-id="OUT" transform="translate(420.42578125, 174)"><rect class="basic label-container" style="" rx="0" ry="0" x="-48.62890625" y="-16" width="97.2578125" height="32"></rect><g class="label" style="" transform="translate(0, -8.5)"><rect></rect><text style=""><tspan xml:space="preserve" dy="1em" x="0" class="row">Outbox row</tspan></text></g></g><g class="node default default flowchart-label" id="flowchart-POST-212" data-node="true" data-id="POST" transform="translate(261.55078125, 174)"><rect class="basic label-container" style="" rx="0" ry="0" x="-60.24609375" y="-16" width="120.4921875" height="32"></rect><g class="label" style="" transform="translate(0, -8.5)"><rect></rect><text style=""><tspan xml:space="preserve" dy="1em" x="0" class="row">Postings insert</tspan></text></g></g><g class="node default default flowchart-label" id="flowchart-BAL-211" data-node="true" data-id="BAL" transform="translate(88.15234375, 174)"><rect class="basic label-container" style="" rx="0" ry="0" x="-63.15234375" y="-16" width="126.3046875" height="32"></rect><g class="label" style="" transform="translate(0, -8.5)"><rect></rect><text style=""><tspan xml:space="preserve" dy="1em" x="0" class="row">Balance update</tspan></text></g></g><g class="node default default flowchart-label" id="flowchart-BUS-215" data-node="true" data-id="BUS" transform="translate(722.109375, 174)"><rect class="basic label-container" style="" rx="0" ry="0" x="-43.078125" y="-16" width="86.15625" height="32"></rect><g class="label" style="" transform="translate(0, -8.5)"><rect></rect><text style=""><tspan xml:space="preserve" dy="1em" x="0" class="row">Event bus</tspan></text></g></g></g></g></g></svg>