<?xml version="1.0" encoding="UTF-8"?>
<svg id="dgm12" width="100%" xmlns="http://www.w3.org/2000/svg" style="max-width: 1661.8515625px;" viewBox="-8 -8 1661.8515625 231.78515625" role="graphics-document document" aria-roledescription="flowchart-v2"><rect x="-100000" y="-100000" width="200000" height="200000" fill="#ffffff"/><style>#dgm12{font-family:Arial,"Liberation Sans",Helvetica,sans-serif;font-size:16px;fill:#000000;}#dgm12 .error-icon{fill:#552222;}#dgm12 .error-text{fill:#552222;stroke:#552222;}#dgm12 .edge-thickness-normal{stroke-width:2px;}#dgm12 .edge-thickness-thick{stroke-width:3.5px;}#dgm12 .edge-pattern-solid{stroke-dasharray:0;}#dgm12 .edge-pattern-dashed{stroke-dasharray:3;}#dgm12 .edge-pattern-dotted{stroke-dasharray:2;}#dgm12 .marker{fill:#666;stroke:#666;}#dgm12 .marker.cross{stroke:#666;}#dgm12 svg{font-family:Arial,"Liberation Sans",Helvetica,sans-serif;font-size:16px;}#dgm12 .label{font-family:Arial,"Liberation Sans",Helvetica,sans-serif;color:#000000;}#dgm12 .cluster-label text{fill:#333;}#dgm12 .cluster-label span,#dgm12 p{color:#333;}#dgm12 .label text,#dgm12 span,#dgm12 p{fill:#000000;color:#000000;}#dgm12 .node rect,#dgm12 .node circle,#dgm12 .node ellipse,#dgm12 .node polygon,#dgm12 .node path{fill:#eee;stroke:#999;stroke-width:1px;}#dgm12 .flowchart-label text{text-anchor:middle;}#dgm12 .node .katex path{fill:#000;stroke:#000;stroke-width:1px;}#dgm12 .node .label{text-align:center;}#dgm12 .node.clickable{cursor:pointer;}#dgm12 .arrowheadPath{fill:#333333;}#dgm12 .edgePath .path{stroke:#666;stroke-width:2.0px;}#dgm12 .flowchart-link{stroke:#666;fill:none;}#dgm12 .edgeLabel{background-color:white;text-align:center;}#dgm12 .edgeLabel rect{opacity:0.5;background-color:white;fill:white;}#dgm12 .labelBkg{background-color:rgba(255, 255, 255, 0.5);}#dgm12 .cluster rect{fill:hsl(0, 0%, 98.9215686275%);stroke:#707070;stroke-width:1px;}#dgm12 .cluster text{fill:#333;}#dgm12 .cluster span,#dgm12 p{color:#333;}#dgm12 div.mermaidTooltip{position:absolute;text-align:center;max-width:200px;padding:2px;font-family:Arial,"Liberation Sans",Helvetica,sans-serif;font-size:12px;background:hsl(-160, 0%, 93.3333333333%);border:1px solid #707070;border-radius:2px;pointer-events:none;z-index:100;}#dgm12 .flowchartTitleText{text-anchor:middle;font-size:18px;fill:#000000;}#dgm12 :root{--mermaid-font-family:Arial,"Liberation Sans",Helvetica,sans-serif;}#dgm12 .good rect{fill:rgb(223, 243, 230)!important;stroke:rgb(46, 139, 87)!important;color:rgb(17, 17, 17)!important;}#dgm12 .good polygon{fill:rgb(223, 243, 230)!important;stroke:rgb(46, 139, 87)!important;color:rgb(17, 17, 17)!important;}#dgm12 .good ellipse{fill:rgb(223, 243, 230)!important;stroke:rgb(46, 139, 87)!important;color:rgb(17, 17, 17)!important;}#dgm12 .good circle{fill:rgb(223, 243, 230)!important;stroke:rgb(46, 139, 87)!important;color:rgb(17, 17, 17)!important;}#dgm12 .good path{fill:rgb(223, 243, 230)!important;stroke:rgb(46, 139, 87)!important;color:rgb(17, 17, 17)!important;}#dgm12 .good tspan{fill:rgb(17, 17, 17)!important;}</style><g><marker id="dgm12_flowchart-pointEnd" class="marker flowchart" viewBox="0 0 10 10" refX="6" refY="5" markerUnits="userSpaceOnUse" markerWidth="12" markerHeight="12" orient="auto"><path d="M 0 0 L 10 5 L 0 10 z" class="arrowMarkerPath" style="stroke-width: 1; stroke-dasharray: 1, 0;"></path></marker><marker id="dgm12_flowchart-pointStart" class="marker flowchart" viewBox="0 0 10 10" refX="4.5" refY="5" markerUnits="userSpaceOnUse" markerWidth="12" markerHeight="12" orient="auto"><path d="M 0 5 L 10 10 L 10 0 z" class="arrowMarkerPath" style="stroke-width: 1; stroke-dasharray: 1, 0;"></path></marker><marker id="dgm12_flowchart-circleEnd" class="marker flowchart" viewBox="0 0 10 10" refX="11" refY="5" markerUnits="userSpaceOnUse" markerWidth="11" markerHeight="11" orient="auto"><circle cx="5" cy="5" r="5" class="arrowMarkerPath" style="stroke-width: 1; stroke-dasharray: 1, 0;"></circle></marker><marker id="dgm12_flowchart-circleStart" class="marker flowchart" viewBox="0 0 10 10" refX="-1" refY="5" markerUnits="userSpaceOnUse" markerWidth="11" markerHeight="11" orient="auto"><circle cx="5" cy="5" r="5" class="arrowMarkerPath" style="stroke-width: 1; stroke-dasharray: 1, 0;"></circle></marker><marker id="dgm12_flowchart-crossEnd" class="marker cross flowchart" viewBox="0 0 11 11" refX="12" refY="5.2" markerUnits="userSpaceOnUse" markerWidth="11" markerHeight="11" orient="auto"><path d="M 1,1 l 9,9 M 10,1 l -9,9" class="arrowMarkerPath" style="stroke-width: 2; stroke-dasharray: 1, 0;"></path></marker><marker id="dgm12_flowchart-crossStart" class="marker cross flowchart" viewBox="0 0 11 11" refX="-1" refY="5.2" markerUnits="userSpaceOnUse" markerWidth="11" markerHeight="11" orient="auto"><path d="M 1,1 l 9,9 M 10,1 l -9,9" class="arrowMarkerPath" style="stroke-width: 2; stroke-dasharray: 1, 0;"></path></marker><g class="root"><g class="clusters"></g><g class="edgePaths"><path d="M163.625,73.363L167.792,73.363C171.958,73.363,180.292,73.363,187.742,73.363C195.192,73.363,201.758,73.363,205.042,73.363L208.325,73.363" id="L-C-API-0" class="edge-thickness-normal edge-pattern-solid flowchart-link LS-C LE-API" style="fill:none;" marker-end="url(#dgm12_flowchart-pointEnd)"></path><path d="M254.422,73.363L258.589,73.363C262.755,73.363,271.089,73.363,278.622,73.429C286.156,73.495,292.889,73.627,296.256,73.693L299.623,73.759" id="L-API-CHK-0" class="edge-thickness-normal edge-pattern-solid flowchart-link LS-API LE-CHK" style="fill:none;" marker-end="url(#dgm12_flowchart-pointEnd)"></path><path d="M429.155,51.37L439.063,46.869C448.971,42.368,468.786,33.366,484.053,28.864C499.319,24.363,510.037,24.363,515.396,24.363L520.755,24.363" id="L-CHK-REPLAY-0" class="edge-thickness-normal edge-pattern-solid flowchart-link LS-CHK LE-REPLAY" style="fill:none;" marker-end="url(#dgm12_flowchart-pointEnd)"></path><path d="M429.155,96.357L439.063,100.691C448.971,105.025,468.786,113.694,486.508,118.029C504.229,122.363,519.857,122.363,527.671,122.363L535.485,122.363" id="L-CHK-TX-0" class="edge-thickness-normal edge-pattern-solid flowchart-link LS-CHK LE-TX" style="fill:none;" marker-end="url(#dgm12_flowchart-pointEnd)"></path><path d="M695.41,122.363L702.032,122.363C708.654,122.363,721.897,122.363,731.802,122.363C741.707,122.363,748.274,122.363,751.557,122.363L754.841,122.363" id="L-TX-RELAY-0" class="edge-thickness-normal edge-pattern-solid flowchart-link LS-TX LE-RELAY" style="fill:none;" marker-end="url(#dgm12_flowchart-pointEnd)"></path><path d="M865.859,122.363L870.026,122.363C874.193,122.363,882.526,122.363,889.976,122.363C897.426,122.363,903.993,122.363,907.276,122.363L910.559,122.363" id="L-RELAY-BUS-0" class="edge-thickness-normal edge-pattern-solid flowchart-link LS-RELAY LE-BUS" style="fill:none;" marker-end="url(#dgm12_flowchart-pointEnd)"></path><path d="M1002.016,122.363L1006.182,122.363C1010.349,122.363,1018.682,122.363,1026.132,122.363C1033.582,122.363,1040.149,122.363,1043.432,122.363L1046.716,122.363" id="L-BUS-CONS-0" class="edge-thickness-normal edge-pattern-solid flowchart-link LS-BUS LE-CONS" style="fill:none;" marker-end="url(#dgm12_flowchart-pointEnd)"></path><path d="M1141.492,122.363L1145.659,122.363C1149.826,122.363,1158.159,122.363,1165.692,122.429C1173.226,122.495,1179.96,122.627,1183.326,122.693L1186.693,122.759" id="L-CONS-DD-0" class="edge-thickness-normal edge-pattern-solid flowchart-link LS-CONS LE-DD" style="fill:none;" marker-end="url(#dgm12_flowchart-pointEnd)"></path><path d="M1354.933,98.96L1365.075,95.361C1375.218,91.761,1395.504,84.562,1417.496,80.963C1439.489,77.363,1463.188,77.363,1475.038,77.363L1486.888,77.363" id="L-DD-SKIP-0" class="edge-thickness-normal edge-pattern-solid flowchart-link LS-DD LE-SKIP" style="fill:none;" marker-end="url(#dgm12_flowchart-pointEnd)"></path><path d="M1354.933,146.767L1365.075,150.199C1375.218,153.632,1395.504,160.498,1411.005,163.93C1426.507,167.363,1437.224,167.363,1442.583,167.363L1447.942,167.363" id="L-DD-EFF-0" class="edge-thickness-normal edge-pattern-solid flowchart-link LS-DD LE-EFF" style="fill:none;" marker-end="url(#dgm12_flowchart-pointEnd)"></path></g><g class="edgeLabels"><g class="edgeLabel"><g class="label" transform="translate(0, 0)"><rect rx="0" ry="0" width="0" height="0"></rect><text style=""><tspan xml:space="preserve" dy="1em" x="0" class="row"></tspan></text></g></g><g class="edgeLabel"><g class="label" transform="translate(0, 0)"><rect rx="0" ry="0" width="0" height="0"></rect><text style=""><tspan xml:space="preserve" dy="1em" x="0" class="row"></tspan></text></g></g><g class="edgeLabel" transform="translate(488.6015625, 24.36328125)"><g class="label" transform="translate(-12.453125, -8.5)"><rect rx="0" ry="0" width="24.879615783691406" height="18.408039093017578"></rect><text style=""><tspan xml:space="preserve" dy="1em" x="0" class="row">yes</tspan></text></g></g><g class="edgeLabel" transform="translate(488.6015625, 122.36328125)"><g class="label" transform="translate(-8.94921875, -8.5)"><rect rx="0" ry="0" width="18.093429565429688" height="18.408039093017578"></rect><text style=""><tspan xml:space="preserve" dy="1em" x="0" class="row">no</tspan></text></g></g><g class="edgeLabel"><g class="label" transform="translate(0, 0)"><rect rx="0" ry="0" width="0" height="0"></rect><text style=""><tspan xml:space="preserve" dy="1em" x="0" class="row"></tspan></text></g></g><g class="edgeLabel"><g class="label" transform="translate(0, 0)"><rect rx="0" ry="0" width="0" height="0"></rect><text style=""><tspan xml:space="preserve" dy="1em" x="0" class="row"></tspan></text></g></g><g class="edgeLabel"><g class="label" transform="translate(0, 0)"><rect rx="0" ry="0" width="0" height="0"></rect><text style=""><tspan xml:space="preserve" dy="1em" x="0" class="row"></tspan></text></g></g><g class="edgeLabel"><g class="label" transform="translate(0, 0)"><rect rx="0" ry="0" width="0" height="0"></rect><text style=""><tspan xml:space="preserve" dy="1em" x="0" class="row"></tspan></text></g></g><g class="edgeLabel" transform="translate(1415.7890625, 77.36328125)"><g class="label" transform="translate(-12.453125, -8.5)"><rect rx="0" ry="0" width="24.879615783691406" height="18.408039093017578"></rect><text style=""><tspan xml:space="preserve" dy="1em" x="0" class="row">yes</tspan></text></g></g><g class="edgeLabel" transform="translate(1415.7890625, 167.36328125)"><g class="label" transform="translate(-8.94921875, -8.5)"><rect rx="0" ry="0" width="18.093429565429688" height="18.408039093017578"></rect><text style=""><tspan xml:space="preserve" dy="1em" x="0" class="row">no</tspan></text></g></g></g><g class="nodes"><g class="node default default flowchart-label" id="flowchart-C-230" data-node="true" data-id="C" transform="translate(81.8125, 73.36328125)"><rect class="basic label-container" style="" rx="0" ry="0" x="-81.8125" y="-24" width="163.625" height="48"></rect><g class="label" style="" transform="translate(0, -16.5)"><rect></rect><text style=""><tspan xml:space="preserve" dy="1em" x="0" class="row">Client</tspan><tspan xml:space="preserve" dy="1em" x="0" class="row">Idempotency-Key K1</tspan></text></g></g><g class="node default default flowchart-label" id="flowchart-API-231" data-node="true" data-id="API" transform="translate(234.0234375, 73.36328125)"><rect class="basic label-container" style="" rx="0" ry="0" x="-20.3984375" y="-16" width="40.796875" height="32"></rect><g class="label" style="" transform="translate(0, -8.5)"><rect></rect><text style=""><tspan xml:space="preserve" dy="1em" x="0" class="row">API</tspan></text></g></g><g class="node default default flowchart-label" id="flowchart-CHK-233" data-node="true" data-id="CHK" transform="translate(377.78515625, 73.36328125)"><polygon points="73.36328125,0 146.7265625,-73.36328125 73.36328125,-146.7265625 0,-73.36328125" class="label-container" transform="translate(-73.36328125,73.36328125)" style=""></polygon><g class="label" style="" transform="translate(0, -8.5)"><rect></rect><text style=""><tspan xml:space="preserve" dy="1em" x="0" class="row">Key K1 seen?</tspan></text></g></g><g class="node default default flowchart-label" id="flowchart-REPLAY-235" data-node="true" data-id="REPLAY" transform="translate(618.09765625, 24.36328125)"><rect class="basic label-container" style="" rx="0" ry="0" x="-92.04296875" y="-16" width="184.0859375" height="32"></rect><g class="label" style="" transform="translate(0, -8.5)"><rect></rect><text style=""><tspan xml:space="preserve" dy="1em" x="0" class="row">Replay stored response</tspan></text></g></g><g class="node default good flowchart-label" id="flowchart-TX-237" data-node="true" data-id="TX" transform="translate(618.09765625, 122.36328125)"><rect class="basic label-container" style="" rx="0" ry="0" x="-77.3125" y="-32" width="154.625" height="64"></rect><g class="label" style="" transform="translate(0, -24.5)"><rect></rect><text style=""><tspan xml:space="preserve" dy="1em" x="0" class="row">One DB transaction</tspan><tspan xml:space="preserve" dy="1em" x="0" class="row">claim key, postings,</tspan><tspan xml:space="preserve" dy="1em" x="0" class="row">outbox, response</tspan></text></g></g><g class="node default default flowchart-label" id="flowchart-RELAY-239" data-node="true" data-id="RELAY" transform="translate(813, 122.36328125)"><rect class="basic label-container" style="" rx="0" ry="0" x="-52.859375" y="-16" width="105.71875" height="32"></rect><g class="label" style="" transform="translate(0, -8.5)"><rect></rect><text style=""><tspan xml:space="preserve" dy="1em" x="0" class="row">Outbox relay</tspan></text></g></g><g class="node default default flowchart-label" id="flowchart-BUS-241" data-node="true" data-id="BUS" transform="translate(958.9375, 122.36328125)"><rect class="basic label-container" style="" rx="0" ry="0" x="-43.078125" y="-16" width="86.15625" height="32"></rect><g class="label" style="" transform="translate(0, -8.5)"><rect></rect><text style=""><tspan xml:space="preserve" dy="1em" x="0" class="row">Event bus</tspan></text></g></g><g class="node default default flowchart-label" id="flowchart-CONS-243" data-node="true" data-id="CONS" transform="translate(1096.75390625, 122.36328125)"><rect class="basic label-container" style="" rx="0" ry="0" x="-44.73828125" y="-16" width="89.4765625" height="32"></rect><g class="label" style="" transform="translate(0, -8.5)"><rect></rect><text style=""><tspan xml:space="preserve" dy="1em" x="0" class="row">Consumer</tspan></text></g></g><g class="node default default flowchart-label" id="flowchart-DD-245" data-node="true" data-id="DD" transform="translate(1284.9140625, 122.36328125)"><polygon points="93.421875,0 186.84375,-93.421875 93.421875,-186.84375 0,-93.421875" class="label-container" transform="translate(-93.421875,93.421875)" style=""></polygon><g class="label" style="" transform="translate(0, -9)"><rect></rect><text style=""><tspan xml:space="preserve" dy="1em" x="0" class="row">msg_id processed?</tspan></text></g></g><g class="node default default flowchart-label" id="flowchart-SKIP-247" data-node="true" data-id="SKIP" transform="translate(1549.546875, 77.36328125)"><rect class="basic label-container" style="" rx="0" ry="0" x="-57.359375" y="-16" width="114.71875" height="32"></rect><g class="label" style="" transform="translate(0, -8.5)"><rect></rect><text style=""><tspan xml:space="preserve" dy="1em" x="0" class="row">Skip duplicate</tspan></text></g></g><g class="node default good flowchart-label" id="flowchart-EFF-249" data-node="true" data-id="EFF" transform="translate(1549.546875, 167.36328125)"><rect class="basic label-container" style="" rx="0" ry="0" x="-96.3046875" y="-24" width="192.609375" height="48"></rect><g class="label" style="" transform="translate(0, -16.5)"><rect></rect><text style=""><tspan xml:space="preserve" dy="1em" x="0" class="row">Side effect + dedupe row</tspan><tspan xml:space="preserve" dy="1em" x="0" class="row">same transaction</tspan></text></g></g></g></g></g></svg>