<?xml version="1.0" encoding="UTF-8"?>
<svg id="dgm35" width="100%" xmlns="http://www.w3.org/2000/svg" style="max-width: 1712.201171875px;" viewBox="-7.5 -8 1712.201171875 614.4453125" role="graphics-document document" aria-roledescription="flowchart-v2"><rect x="-100000" y="-100000" width="200000" height="200000" fill="#ffffff"/><style>#dgm35{font-family:Arial,"Liberation Sans",Helvetica,sans-serif;font-size:16px;fill:#000000;}#dgm35 .error-icon{fill:#552222;}#dgm35 .error-text{fill:#552222;stroke:#552222;}#dgm35 .edge-thickness-normal{stroke-width:2px;}#dgm35 .edge-thickness-thick{stroke-width:3.5px;}#dgm35 .edge-pattern-solid{stroke-dasharray:0;}#dgm35 .edge-pattern-dashed{stroke-dasharray:3;}#dgm35 .edge-pattern-dotted{stroke-dasharray:2;}#dgm35 .marker{fill:#666;stroke:#666;}#dgm35 .marker.cross{stroke:#666;}#dgm35 svg{font-family:Arial,"Liberation Sans",Helvetica,sans-serif;font-size:16px;}#dgm35 .label{font-family:Arial,"Liberation Sans",Helvetica,sans-serif;color:#000000;}#dgm35 .cluster-label text{fill:#333;}#dgm35 .cluster-label span,#dgm35 p{color:#333;}#dgm35 .label text,#dgm35 span,#dgm35 p{fill:#000000;color:#000000;}#dgm35 .node rect,#dgm35 .node circle,#dgm35 .node ellipse,#dgm35 .node polygon,#dgm35 .node path{fill:#eee;stroke:#999;stroke-width:1px;}#dgm35 .flowchart-label text{text-anchor:middle;}#dgm35 .node .katex path{fill:#000;stroke:#000;stroke-width:1px;}#dgm35 .node .label{text-align:center;}#dgm35 .node.clickable{cursor:pointer;}#dgm35 .arrowheadPath{fill:#333333;}#dgm35 .edgePath .path{stroke:#666;stroke-width:2.0px;}#dgm35 .flowchart-link{stroke:#666;fill:none;}#dgm35 .edgeLabel{background-color:white;text-align:center;}#dgm35 .edgeLabel rect{opacity:0.5;background-color:white;fill:white;}#dgm35 .labelBkg{background-color:rgba(255, 255, 255, 0.5);}#dgm35 .cluster rect{fill:hsl(0, 0%, 98.9215686275%);stroke:#707070;stroke-width:1px;}#dgm35 .cluster text{fill:#333;}#dgm35 .cluster span,#dgm35 p{color:#333;}#dgm35 div.mermaidTooltip{position:absolute;text-align:center;max-width:200px;padding:2px;font-family:Arial,"Liberation Sans",Helvetica,sans-serif;font-size:12px;background:hsl(-160, 0%, 93.3333333333%);border:1px solid #707070;border-radius:2px;pointer-events:none;z-index:100;}#dgm35 .flowchartTitleText{text-anchor:middle;font-size:18px;fill:#000000;}#dgm35 :root{--mermaid-font-family:Arial,"Liberation Sans",Helvetica,sans-serif;}#dgm35 .newnode rect{fill:rgb(217, 242, 227)!important;stroke:rgb(46, 139, 87)!important;color:rgb(17, 17, 17)!important;}#dgm35 .newnode polygon{fill:rgb(217, 242, 227)!important;stroke:rgb(46, 139, 87)!important;color:rgb(17, 17, 17)!important;}#dgm35 .newnode ellipse{fill:rgb(217, 242, 227)!important;stroke:rgb(46, 139, 87)!important;color:rgb(17, 17, 17)!important;}#dgm35 .newnode circle{fill:rgb(217, 242, 227)!important;stroke:rgb(46, 139, 87)!important;color:rgb(17, 17, 17)!important;}#dgm35 .newnode path{fill:rgb(217, 242, 227)!important;stroke:rgb(46, 139, 87)!important;color:rgb(17, 17, 17)!important;}#dgm35 .newnode tspan{fill:rgb(17, 17, 17)!important;}#dgm35 .moved rect{fill:rgb(249, 214, 213)!important;stroke:rgb(192, 57, 43)!important;stroke-width:2px!important;color:rgb(17, 17, 17)!important;}#dgm35 .moved polygon{fill:rgb(249, 214, 213)!important;stroke:rgb(192, 57, 43)!important;stroke-width:2px!important;color:rgb(17, 17, 17)!important;}#dgm35 .moved ellipse{fill:rgb(249, 214, 213)!important;stroke:rgb(192, 57, 43)!important;stroke-width:2px!important;color:rgb(17, 17, 17)!important;}#dgm35 .moved circle{fill:rgb(249, 214, 213)!important;stroke:rgb(192, 57, 43)!important;stroke-width:2px!important;color:rgb(17, 17, 17)!important;}#dgm35 .moved path{fill:rgb(249, 214, 213)!important;stroke:rgb(192, 57, 43)!important;stroke-width:2px!important;color:rgb(17, 17, 17)!important;}#dgm35 .moved tspan{fill:rgb(17, 17, 17)!important;}</style><g><marker id="dgm35_flowchart-pointEnd" class="marker flowchart" viewBox="0 0 10 10" refX="6" refY="5" markerUnits="userSpaceOnUse" markerWidth="12" markerHeight="12" orient="auto"><path d="M 0 0 L 10 5 L 0 10 z" class="arrowMarkerPath" style="stroke-width: 1; stroke-dasharray: 1, 0;"></path></marker><marker id="dgm35_flowchart-pointStart" class="marker flowchart" viewBox="0 0 10 10" refX="4.5" refY="5" markerUnits="userSpaceOnUse" markerWidth="12" markerHeight="12" orient="auto"><path d="M 0 5 L 10 10 L 10 0 z" class="arrowMarkerPath" style="stroke-width: 1; stroke-dasharray: 1, 0;"></path></marker><marker id="dgm35_flowchart-circleEnd" class="marker flowchart" viewBox="0 0 10 10" refX="11" refY="5" markerUnits="userSpaceOnUse" markerWidth="11" markerHeight="11" orient="auto"><circle cx="5" cy="5" r="5" class="arrowMarkerPath" style="stroke-width: 1; stroke-dasharray: 1, 0;"></circle></marker><marker id="dgm35_flowchart-circleStart" class="marker flowchart" viewBox="0 0 10 10" refX="-1" refY="5" markerUnits="userSpaceOnUse" markerWidth="11" markerHeight="11" orient="auto"><circle cx="5" cy="5" r="5" class="arrowMarkerPath" style="stroke-width: 1; stroke-dasharray: 1, 0;"></circle></marker><marker id="dgm35_flowchart-crossEnd" class="marker cross flowchart" viewBox="0 0 11 11" refX="12" refY="5.2" markerUnits="userSpaceOnUse" markerWidth="11" markerHeight="11" orient="auto"><path d="M 1,1 l 9,9 M 10,1 l -9,9" class="arrowMarkerPath" style="stroke-width: 2; stroke-dasharray: 1, 0;"></path></marker><marker id="dgm35_flowchart-crossStart" class="marker cross flowchart" viewBox="0 0 11 11" refX="-1" refY="5.2" markerUnits="userSpaceOnUse" markerWidth="11" markerHeight="11" orient="auto"><path d="M 1,1 l 9,9 M 10,1 l -9,9" class="arrowMarkerPath" style="stroke-width: 2; stroke-dasharray: 1, 0;"></path></marker><g class="root"><g class="clusters"></g><g class="edgePaths"><path d="M409.443,299.223L419.689,299.223C429.936,299.223,450.428,299.223,470.037,299.223C489.645,299.223,508.371,299.223,517.734,299.223L527.096,299.223" id="L-R1-R2-0" class="edge-thickness-thick edge-pattern-solid flowchart-link LS-R1 LE-R2" style="stroke-width: 3.5px;fill:none;" marker-end="url(#dgm35_flowchart-pointEnd)"></path><path d="M982.479,299.223L993.837,299.223C1005.195,299.223,1027.911,299.223,1049.744,299.223C1071.576,299.223,1092.526,299.223,1103.001,299.223L1113.475,299.223" id="L-R2-R3-0" class="edge-thickness-thick edge-pattern-solid flowchart-link LS-R2 LE-R3" style="stroke-width: 3.5px;fill:none;" marker-end="url(#dgm35_flowchart-pointEnd)"></path></g><g class="edgeLabels"><g class="edgeLabel" transform="translate(470.919921875, 299.22265625)"><g class="label" transform="translate(-36.4765625, -8.5)"><rect rx="0" ry="0" width="72.99287414550781" height="18.964622497558594"></rect><text style=""><tspan xml:space="preserve" dy="1em" x="0" class="row">node joins</tspan></text></g></g><g class="edgeLabel" transform="translate(1050.626953125, 299.22265625)"><g class="label" transform="translate(-43.1484375, -8.5)"><rect rx="0" ry="0" width="86.32013702392578" height="18.964622497558594"></rect><text style=""><tspan xml:space="preserve" dy="1em" x="0" class="row">node leaves</tspan></text></g></g></g><g class="nodes"><g class="root" transform="translate(1111.275390625, 80.96484375)"><g class="clusters"><g class="cluster default flowchart-label" id="R3"><rect style="" rx="0" ry="0" x="8" y="8" width="577.42578125" height="420.515625"></rect><g class="cluster-label" transform="translate(296.712890625, 8)"><text style=""><tspan xml:space="preserve" dy="1em" x="0" class="row">3 - Remove C: only C's keys move, to its successor A</tspan></text></g></g></g><g class="edgePaths"><path d="M257.986,369.259L223.907,361.464C189.827,353.67,121.667,338.081,87.588,320.636C53.508,303.191,53.508,283.891,53.508,264.59C53.508,245.289,53.508,225.988,55.179,212.515C56.85,199.042,60.193,191.397,61.864,187.574L63.535,183.751" id="L-A3-D3-0" class="edge-thickness-normal edge-pattern-solid flowchart-link LS-A3 LE-D3" style="fill:none;" marker-end="url(#dgm35_flowchart-pointEnd)"></path><path d="M111.296,156.697L143.491,165.029C175.686,173.361,240.077,190.024,299.48,206.235C358.883,222.446,413.299,238.205,440.507,246.084L467.716,253.963" id="L-D3-B3-0" class="edge-thickness-normal edge-pattern-solid flowchart-link LS-D3 LE-B3" style="fill:none;" marker-end="url(#dgm35_flowchart-pointEnd)"></path><path d="M504.41,297.492L504.41,301.659C504.41,305.826,504.41,314.159,473.287,325.855C442.164,337.552,379.917,352.611,348.794,360.141L317.671,367.671" id="L-B3-A3-0" class="edge-thickness-normal edge-pattern-solid flowchart-link LS-B3 LE-A3" style="fill:none;" marker-end="url(#dgm35_flowchart-pointEnd)"></path><path d="M79.016,65L79.016,69.167C79.016,73.333,79.016,81.667,79.016,89.117C79.016,96.567,79.016,103.133,79.016,106.417L79.016,109.7" id="L-k1c-D3-0" class="edge-thickness-normal edge-pattern-dotted flowchart-link LS-k1c LE-D3" style="fill:none;stroke-width:2px;stroke-dasharray:3;" marker-end="url(#dgm35_flowchart-pointEnd)"></path><path d="M514.41,164.344L514.41,171.401C514.41,178.458,514.41,192.573,513.827,203.006C513.244,213.44,512.078,220.192,511.495,223.569L510.912,226.945" id="L-k4c-B3-0" class="edge-thickness-normal edge-pattern-dotted flowchart-link LS-k4c LE-B3" style="fill:none;stroke-width:2px;stroke-dasharray:3;" marker-end="url(#dgm35_flowchart-pointEnd)"></path><path d="M189.543,280.59L189.543,287.574C189.543,294.557,189.543,308.525,200.644,321.655C211.745,334.784,233.947,347.077,245.049,353.223L256.15,359.369" id="L-k2c-A3-0" class="edge-thickness-normal edge-pattern-dotted flowchart-link LS-k2c LE-A3" style="fill:none;stroke-width:2px;stroke-dasharray:3;" marker-end="url(#dgm35_flowchart-pointEnd)"></path><path d="M381.043,280.59L381.043,287.574C381.043,294.557,381.043,308.525,369.942,321.655C358.841,334.784,336.638,347.077,325.537,353.223L314.436,359.369" id="L-k3c-A3-0" class="edge-thickness-normal edge-pattern-dotted flowchart-link LS-k3c LE-A3" style="fill:none;stroke-width:2px;stroke-dasharray:3;" marker-end="url(#dgm35_flowchart-pointEnd)"></path></g><g class="edgeLabels"><g class="edgeLabel"><g class="label" transform="translate(0, 0)"><rect rx="0" ry="0" width="0" height="0"></rect><text style=""><tspan xml:space="preserve" dy="1em" x="0" class="row"></tspan></text></g></g><g class="edgeLabel"><g class="label" transform="translate(0, 0)"><rect rx="0" ry="0" width="0" height="0"></rect><text style=""><tspan xml:space="preserve" dy="1em" x="0" class="row"></tspan></text></g></g><g class="edgeLabel"><g class="label" transform="translate(0, 0)"><rect rx="0" ry="0" width="0" height="0"></rect><text style=""><tspan xml:space="preserve" dy="1em" x="0" class="row"></tspan></text></g></g><g class="edgeLabel"><g class="label" transform="translate(0, 0)"><rect rx="0" ry="0" width="0" height="0"></rect><text style=""><tspan xml:space="preserve" dy="1em" x="0" class="row"></tspan></text></g></g><g class="edgeLabel"><g class="label" transform="translate(0, 0)"><rect rx="0" ry="0" width="0" height="0"></rect><text style=""><tspan xml:space="preserve" dy="1em" x="0" class="row"></tspan></text></g></g><g class="edgeLabel"><g class="label" transform="translate(0, 0)"><rect rx="0" ry="0" width="0" height="0"></rect><text style=""><tspan xml:space="preserve" dy="1em" x="0" class="row"></tspan></text></g></g><g class="edgeLabel"><g class="label" transform="translate(0, 0)"><rect rx="0" ry="0" width="0" height="0"></rect><text style=""><tspan xml:space="preserve" dy="1em" x="0" class="row"></tspan></text></g></g></g><g class="nodes"><g class="node default default flowchart-label" id="flowchart-D3-686" data-node="true" data-id="D3" transform="translate(79.015625, 148.34375)"><circle style="" rx="0" ry="0" r="33.34375" width="66.6875" height="32"></circle><g class="label" style="" transform="translate(0, -8.5)"><rect></rect><text style=""><tspan xml:space="preserve" dy="1em" x="0" class="row">D at 50</tspan></text></g></g><g class="node default default flowchart-label" id="flowchart-A3-685" data-node="true" data-id="A3" transform="translate(285.29296875, 375.50390625)"><circle style="" rx="0" ry="0" r="28.01171875" width="56.0234375" height="32"></circle><g class="label" style="" transform="translate(0, -8.5)"><rect></rect><text style=""><tspan xml:space="preserve" dy="1em" x="0" class="row">A at 0</tspan></text></g></g><g class="node default default flowchart-label" id="flowchart-B3-688" data-node="true" data-id="B3" transform="translate(504.41015625, 264.58984375)"><circle style="" rx="0" ry="0" r="32.90234375" width="65.8046875" height="32"></circle><g class="label" style="" transform="translate(0, -8.5)"><rect></rect><text style=""><tspan xml:space="preserve" dy="1em" x="0" class="row">B at 90</tspan></text></g></g><g class="node default default flowchart-label" id="flowchart-k1c-691" data-node="true" data-id="k1c" transform="translate(79.015625, 49)"><rect class="basic label-container" style="" rx="0" ry="0" x="-36.015625" y="-16" width="72.03125" height="32"></rect><g class="label" style="" transform="translate(0, -8.5)"><rect></rect><text style=""><tspan xml:space="preserve" dy="1em" x="0" class="row">k1 at 30</tspan></text></g></g><g class="node default default flowchart-label" id="flowchart-k4c-693" data-node="true" data-id="k4c" transform="translate(514.41015625, 148.34375)"><rect class="basic label-container" style="" rx="0" ry="0" x="-36.015625" y="-16" width="72.03125" height="32"></rect><g class="label" style="" transform="translate(0, -8.5)"><rect></rect><text style=""><tspan xml:space="preserve" dy="1em" x="0" class="row">k4 at 60</tspan></text></g></g><g class="node default moved flowchart-label" id="flowchart-k2c-695" data-node="true" data-id="k2c" transform="translate(189.54296875, 264.58984375)"><rect class="basic label-container" style="" rx="0" ry="0" x="-101.03515625" y="-16" width="202.0703125" height="32"></rect><g class="label" style="" transform="translate(0, -8.5)"><rect></rect><text style=""><tspan xml:space="preserve" dy="1em" x="0" class="row">k2 at 120 - MOVED C to A</tspan></text></g></g><g class="node default default flowchart-label" id="flowchart-k3c-697" data-node="true" data-id="k3c" transform="translate(381.04296875, 264.58984375)"><rect class="basic label-container" style="" rx="0" ry="0" x="-40.46484375" y="-16" width="80.9296875" height="32"></rect><g class="label" style="" transform="translate(0, -8.5)"><rect></rect><text style=""><tspan xml:space="preserve" dy="1em" x="0" class="row">k3 at 250</tspan></text></g></g></g></g><g class="root" transform="translate(524.896484375, -8)"><g class="clusters"><g class="cluster default flowchart-label" id="R2"><rect style="" rx="0" ry="0" x="8" y="8" width="450.08203125" height="598.4453125"></rect><g class="cluster-label" transform="translate(233.041015625, 8)"><text style=""><tspan xml:space="preserve" dy="1em" x="0" class="row">2 - Add D at 50: only keys in 0 to 50 move, B to D</tspan></text></g></g></g><g class="edgePaths"><path d="M153.221,539.636L141.673,533.101C130.126,526.565,107.03,513.493,95.482,496.492C83.934,479.491,83.934,458.56,83.934,437.629C83.934,416.698,83.934,395.767,83.934,375.651C83.934,355.535,83.934,336.234,83.934,316.934C83.934,297.633,83.934,278.332,87.294,263.604C90.654,248.876,97.375,238.721,100.735,233.644L104.096,228.566" id="L-A2-D2-0" class="edge-thickness-normal edge-pattern-solid flowchart-link LS-A2 LE-D2" style="fill:none;" marker-end="url(#dgm35_flowchart-pointEnd)"></path><path d="M192.74,201.839L211.185,211.371C229.631,220.903,266.521,239.967,292.112,255.185C317.703,270.403,331.994,281.775,339.139,287.461L346.285,293.147" id="L-D2-B2-0" class="edge-thickness-normal edge-pattern-solid flowchart-link LS-D2 LE-B2" style="fill:none;" marker-end="url(#dgm35_flowchart-pointEnd)"></path><path d="M376.178,349.836L376.178,354.003C376.178,358.169,376.178,366.503,370.93,376.011C365.683,385.52,355.188,396.203,349.94,401.545L344.693,406.887" id="L-B2-C2-0" class="edge-thickness-normal edge-pattern-solid flowchart-link LS-B2 LE-C2" style="fill:none;" marker-end="url(#dgm35_flowchart-pointEnd)"></path><path d="M314.494,475.422L314.494,479.589C314.494,483.755,314.494,492.089,296.856,503.086C279.217,514.083,243.94,527.743,226.302,534.574L208.664,541.404" id="L-C2-A2-0" class="edge-thickness-normal edge-pattern-solid flowchart-link LS-C2 LE-A2" style="fill:none;" marker-end="url(#dgm35_flowchart-pointEnd)"></path><path d="M139.867,65L139.867,69.167C139.867,73.333,139.867,81.667,139.867,89.117C139.867,96.567,139.867,103.133,139.867,106.417L139.867,109.7" id="L-k1b-D2-0" class="edge-thickness-normal edge-pattern-dotted flowchart-link LS-k1b LE-D2" style="fill:none;stroke-width:2px;stroke-dasharray:3;" marker-end="url(#dgm35_flowchart-pointEnd)"></path><path d="M386.178,190.516L386.178,201.935C386.178,213.354,386.178,236.193,385.595,250.988C385.012,265.784,383.845,272.536,383.262,275.912L382.679,279.289" id="L-k4b-B2-0" class="edge-thickness-normal edge-pattern-dotted flowchart-link LS-k4b LE-B2" style="fill:none;stroke-width:2px;stroke-dasharray:3;" marker-end="url(#dgm35_flowchart-pointEnd)"></path><path d="M223.527,332.934L223.527,339.917C223.527,346.901,223.527,360.868,232.778,374.238C242.028,387.607,260.529,400.378,269.779,406.763L279.03,413.148" id="L-k2b-C2-0" class="edge-thickness-normal edge-pattern-dotted flowchart-link LS-k2b LE-C2" style="fill:none;stroke-width:2px;stroke-dasharray:3;" marker-end="url(#dgm35_flowchart-pointEnd)"></path><path d="M159.398,453.629L159.398,461.428C159.398,469.227,159.398,484.824,160.629,496.207C161.86,507.59,164.321,514.759,165.552,518.343L166.782,521.927" id="L-k3b-A2-0" class="edge-thickness-normal edge-pattern-dotted flowchart-link LS-k3b LE-A2" style="fill:none;stroke-width:2px;stroke-dasharray:3;" marker-end="url(#dgm35_flowchart-pointEnd)"></path></g><g class="edgeLabels"><g class="edgeLabel"><g class="label" transform="translate(0, 0)"><rect rx="0" ry="0" width="0" height="0"></rect><text style=""><tspan xml:space="preserve" dy="1em" x="0" class="row"></tspan></text></g></g><g class="edgeLabel"><g class="label" transform="translate(0, 0)"><rect rx="0" ry="0" width="0" height="0"></rect><text style=""><tspan xml:space="preserve" dy="1em" x="0" class="row"></tspan></text></g></g><g class="edgeLabel"><g class="label" transform="translate(0, 0)"><rect rx="0" ry="0" width="0" height="0"></rect><text style=""><tspan xml:space="preserve" dy="1em" x="0" class="row"></tspan></text></g></g><g class="edgeLabel"><g class="label" transform="translate(0, 0)"><rect rx="0" ry="0" width="0" height="0"></rect><text style=""><tspan xml:space="preserve" dy="1em" x="0" class="row"></tspan></text></g></g><g class="edgeLabel"><g class="label" transform="translate(0, 0)"><rect rx="0" ry="0" width="0" height="0"></rect><text style=""><tspan xml:space="preserve" dy="1em" x="0" class="row"></tspan></text></g></g><g class="edgeLabel"><g class="label" transform="translate(0, 0)"><rect rx="0" ry="0" width="0" height="0"></rect><text style=""><tspan xml:space="preserve" dy="1em" x="0" class="row"></tspan></text></g></g><g class="edgeLabel"><g class="label" transform="translate(0, 0)"><rect rx="0" ry="0" width="0" height="0"></rect><text style=""><tspan xml:space="preserve" dy="1em" x="0" class="row"></tspan></text></g></g><g class="edgeLabel"><g class="label" transform="translate(0, 0)"><rect rx="0" ry="0" width="0" height="0"></rect><text style=""><tspan xml:space="preserve" dy="1em" x="0" class="row"></tspan></text></g></g></g><g class="nodes"><g class="node default newnode flowchart-label" id="flowchart-D2-670" data-node="true" data-id="D2" transform="translate(139.8671875, 174.515625)"><circle style="" rx="0" ry="0" r="59.515625" width="119.03125" height="32"></circle><g class="label" style="" transform="translate(0, -8.5)"><rect></rect><text style=""><tspan xml:space="preserve" dy="1em" x="0" class="row">D at 50 - NEW</tspan></text></g></g><g class="node default default flowchart-label" id="flowchart-A2-669" data-node="true" data-id="A2" transform="translate(177.599609375, 553.43359375)"><circle style="" rx="0" ry="0" r="28.01171875" width="56.0234375" height="32"></circle><g class="label" style="" transform="translate(0, -8.5)"><rect></rect><text style=""><tspan xml:space="preserve" dy="1em" x="0" class="row">A at 0</tspan></text></g></g><g class="node default default flowchart-label" id="flowchart-B2-672" data-node="true" data-id="B2" transform="translate(376.177734375, 316.93359375)"><circle style="" rx="0" ry="0" r="32.90234375" width="65.8046875" height="32"></circle><g class="label" style="" transform="translate(0, -8.5)"><rect></rect><text style=""><tspan xml:space="preserve" dy="1em" x="0" class="row">B at 90</tspan></text></g></g><g class="node default default flowchart-label" id="flowchart-C2-674" data-node="true" data-id="C2" transform="translate(314.494140625, 437.62890625)"><circle style="" rx="0" ry="0" r="37.79296875" width="75.5859375" height="32"></circle><g class="label" style="" transform="translate(0, -8.5)"><rect></rect><text style=""><tspan xml:space="preserve" dy="1em" x="0" class="row">C at 200</tspan></text></g></g><g class="node default moved flowchart-label" id="flowchart-k1b-677" data-node="true" data-id="k1b" transform="translate(139.8671875, 49)"><rect class="basic label-container" style="" rx="0" ry="0" x="-96.8671875" y="-16" width="193.734375" height="32"></rect><g class="label" style="" transform="translate(0, -8.5)"><rect></rect><text style=""><tspan xml:space="preserve" dy="1em" x="0" class="row">k1 at 30 - MOVED B to D</tspan></text></g></g><g class="node default default flowchart-label" id="flowchart-k4b-679" data-node="true" data-id="k4b" transform="translate(386.177734375, 174.515625)"><rect class="basic label-container" style="" rx="0" ry="0" x="-36.015625" y="-16" width="72.03125" height="32"></rect><g class="label" style="" transform="translate(0, -8.5)"><rect></rect><text style=""><tspan xml:space="preserve" dy="1em" x="0" class="row">k4 at 60</tspan></text></g></g><g class="node default default flowchart-label" id="flowchart-k2b-681" data-node="true" data-id="k2b" transform="translate(223.52734375, 316.93359375)"><rect class="basic label-container" style="" rx="0" ry="0" x="-40.46484375" y="-16" width="80.9296875" height="32"></rect><g class="label" style="" transform="translate(0, -8.5)"><rect></rect><text style=""><tspan xml:space="preserve" dy="1em" x="0" class="row">k2 at 120</tspan></text></g></g><g class="node default default flowchart-label" id="flowchart-k3b-683" data-node="true" data-id="k3b" transform="translate(159.3984375, 437.62890625)"><rect class="basic label-container" style="" rx="0" ry="0" x="-40.46484375" y="-16" width="80.9296875" height="32"></rect><g class="label" style="" transform="translate(0, -8.5)"><rect></rect><text style=""><tspan xml:space="preserve" dy="1em" x="0" class="row">k3 at 250</tspan></text></g></g></g></g><g class="root" transform="translate(-7.5, 76.515625)"><g class="clusters"><g class="cluster default flowchart-label" id="R1"><rect style="" rx="0" ry="0" x="8" y="8" width="409.443359375" height="429.4140625"></rect><g class="cluster-label" transform="translate(212.7216796875, 8)"><text style=""><tspan xml:space="preserve" dy="1em" x="0" class="row">1 - Initial ring: A at 0, B at 90, C at 200</tspan></text></g></g></g><g class="edgePaths"><path d="M132.425,371.668L119.272,364.955C106.119,358.242,79.814,344.817,66.661,327.638C53.508,310.46,53.508,289.529,53.508,268.598C53.508,247.667,53.508,226.736,62.637,210.161C71.766,193.586,90.024,181.368,99.153,175.258L108.282,169.149" id="L-A1-B1-0" class="edge-thickness-normal edge-pattern-solid flowchart-link LS-A1 LE-B1" style="fill:none;" marker-end="url(#dgm35_flowchart-pointEnd)"></path><path d="M170.097,161.267L186.797,168.69C203.496,176.113,236.896,190.959,258.843,203.724C280.79,216.488,291.285,227.172,296.532,232.514L301.78,237.856" id="L-B1-C1-0" class="edge-thickness-normal edge-pattern-solid flowchart-link LS-B1 LE-C1" style="fill:none;" marker-end="url(#dgm35_flowchart-pointEnd)"></path><path d="M331.979,306.391L331.979,310.557C331.979,314.724,331.979,323.057,308.19,334.446C284.402,345.835,236.826,360.28,213.038,367.502L189.25,374.725" id="L-C1-A1-0" class="edge-thickness-normal edge-pattern-solid flowchart-link LS-C1 LE-A1" style="fill:none;" marker-end="url(#dgm35_flowchart-pointEnd)"></path><path d="M79.016,65L79.016,69.167C79.016,73.333,79.016,81.667,84.566,91.101C90.117,100.535,101.219,111.07,106.77,116.338L112.32,121.605" id="L-k1a-B1-0" class="edge-thickness-normal edge-pattern-dotted flowchart-link LS-k1a LE-B1" style="fill:none;stroke-width:2px;stroke-dasharray:3;" marker-end="url(#dgm35_flowchart-pointEnd)"></path><path d="M282.52,65L282.52,69.167C282.52,73.333,282.52,81.667,264.67,93.087C246.821,104.507,211.122,119.014,193.272,126.267L175.423,133.52" id="L-k4a-B1-0" class="edge-thickness-normal edge-pattern-dotted flowchart-link LS-k4a LE-B1" style="fill:none;stroke-width:2px;stroke-dasharray:3;" marker-end="url(#dgm35_flowchart-pointEnd)"></path><path d="M341.979,163.902L341.979,170.886C341.979,177.87,341.979,191.837,341.441,202.194C340.904,212.55,339.83,219.296,339.293,222.668L338.756,226.041" id="L-k2a-C1-0" class="edge-thickness-normal edge-pattern-dotted flowchart-link LS-k2a LE-C1" style="fill:none;stroke-width:2px;stroke-dasharray:3;" marker-end="url(#dgm35_flowchart-pointEnd)"></path><path d="M157.375,284.598L157.375,292.396C157.375,300.195,157.375,315.793,157.375,326.875C157.375,337.957,157.375,344.524,157.375,347.807L157.375,351.091" id="L-k3a-A1-0" class="edge-thickness-normal edge-pattern-dotted flowchart-link LS-k3a LE-A1" style="fill:none;stroke-width:2px;stroke-dasharray:3;" marker-end="url(#dgm35_flowchart-pointEnd)"></path></g><g class="edgeLabels"><g class="edgeLabel"><g class="label" transform="translate(0, 0)"><rect rx="0" ry="0" width="0" height="0"></rect><text style=""><tspan xml:space="preserve" dy="1em" x="0" class="row"></tspan></text></g></g><g class="edgeLabel"><g class="label" transform="translate(0, 0)"><rect rx="0" ry="0" width="0" height="0"></rect><text style=""><tspan xml:space="preserve" dy="1em" x="0" class="row"></tspan></text></g></g><g class="edgeLabel"><g class="label" transform="translate(0, 0)"><rect rx="0" ry="0" width="0" height="0"></rect><text style=""><tspan xml:space="preserve" dy="1em" x="0" class="row"></tspan></text></g></g><g class="edgeLabel"><g class="label" transform="translate(0, 0)"><rect rx="0" ry="0" width="0" height="0"></rect><text style=""><tspan xml:space="preserve" dy="1em" x="0" class="row"></tspan></text></g></g><g class="edgeLabel"><g class="label" transform="translate(0, 0)"><rect rx="0" ry="0" width="0" height="0"></rect><text style=""><tspan xml:space="preserve" dy="1em" x="0" class="row"></tspan></text></g></g><g class="edgeLabel"><g class="label" transform="translate(0, 0)"><rect rx="0" ry="0" width="0" height="0"></rect><text style=""><tspan xml:space="preserve" dy="1em" x="0" class="row"></tspan></text></g></g><g class="edgeLabel"><g class="label" transform="translate(0, 0)"><rect rx="0" ry="0" width="0" height="0"></rect><text style=""><tspan xml:space="preserve" dy="1em" x="0" class="row"></tspan></text></g></g></g><g class="nodes"><g class="node default default flowchart-label" id="flowchart-B1-656" data-node="true" data-id="B1" transform="translate(140.03125, 147.90234375)"><circle style="" rx="0" ry="0" r="32.90234375" width="65.8046875" height="32"></circle><g class="label" style="" transform="translate(0, -8.5)"><rect></rect><text style=""><tspan xml:space="preserve" dy="1em" x="0" class="row">B at 90</tspan></text></g></g><g class="node default default flowchart-label" id="flowchart-A1-655" data-node="true" data-id="A1" transform="translate(157.375, 384.40234375)"><circle style="" rx="0" ry="0" r="28.01171875" width="56.0234375" height="32"></circle><g class="label" style="" transform="translate(0, -8.5)"><rect></rect><text style=""><tspan xml:space="preserve" dy="1em" x="0" class="row">A at 0</tspan></text></g></g><g class="node default default flowchart-label" id="flowchart-C1-658" data-node="true" data-id="C1" transform="translate(331.978515625, 268.59765625)"><circle style="" rx="0" ry="0" r="37.79296875" width="75.5859375" height="32"></circle><g class="label" style="" transform="translate(0, -8.5)"><rect></rect><text style=""><tspan xml:space="preserve" dy="1em" x="0" class="row">C at 200</tspan></text></g></g><g class="node default default flowchart-label" id="flowchart-k1a-661" data-node="true" data-id="k1a" transform="translate(79.015625, 49)"><rect class="basic label-container" style="" rx="0" ry="0" x="-36.015625" y="-16" width="72.03125" height="32"></rect><g class="label" style="" transform="translate(0, -8.5)"><rect></rect><text style=""><tspan xml:space="preserve" dy="1em" x="0" class="row">k1 at 30</tspan></text></g></g><g class="node default default flowchart-label" id="flowchart-k4a-663" data-node="true" data-id="k4a" transform="translate(282.51953125, 49)"><rect class="basic label-container" style="" rx="0" ry="0" x="-36.015625" y="-16" width="72.03125" height="32"></rect><g class="label" style="" transform="translate(0, -8.5)"><rect></rect><text style=""><tspan xml:space="preserve" dy="1em" x="0" class="row">k4 at 60</tspan></text></g></g><g class="node default default flowchart-label" id="flowchart-k2a-665" data-node="true" data-id="k2a" transform="translate(341.978515625, 147.90234375)"><rect class="basic label-container" style="" rx="0" ry="0" x="-40.46484375" y="-16" width="80.9296875" height="32"></rect><g class="label" style="" transform="translate(0, -8.5)"><rect></rect><text style=""><tspan xml:space="preserve" dy="1em" x="0" class="row">k2 at 120</tspan></text></g></g><g class="node default default flowchart-label" id="flowchart-k3a-667" data-node="true" data-id="k3a" transform="translate(157.375, 268.59765625)"><rect class="basic label-container" style="" rx="0" ry="0" x="-68.8671875" y="-16" width="137.734375" height="32"></rect><g class="label" style="" transform="translate(0, -8.5)"><rect></rect><text style=""><tspan xml:space="preserve" dy="1em" x="0" class="row">k3 at 250 - wraps</tspan></text></g></g></g></g></g></g></g></svg>