<?xml version="1.0" encoding="UTF-8"?>
<svg id="dgm7" width="100%" xmlns="http://www.w3.org/2000/svg" class="statediagram" style="max-width: 677.71875px;" viewBox="0 0 677.71875 374" role="graphics-document document" aria-roledescription="stateDiagram"><rect x="-100000" y="-100000" width="200000" height="200000" fill="#ffffff"/><style>#dgm7{font-family:Arial,"Liberation Sans",Helvetica,sans-serif;font-size:16px;fill:#000000;}#dgm7 .error-icon{fill:#552222;}#dgm7 .error-text{fill:#552222;stroke:#552222;}#dgm7 .edge-thickness-normal{stroke-width:2px;}#dgm7 .edge-thickness-thick{stroke-width:3.5px;}#dgm7 .edge-pattern-solid{stroke-dasharray:0;}#dgm7 .edge-pattern-dashed{stroke-dasharray:3;}#dgm7 .edge-pattern-dotted{stroke-dasharray:2;}#dgm7 .marker{fill:#666;stroke:#666;}#dgm7 .marker.cross{stroke:#666;}#dgm7 svg{font-family:Arial,"Liberation Sans",Helvetica,sans-serif;font-size:16px;}#dgm7 defs #statediagram-barbEnd{fill:#000;stroke:#000;}#dgm7 g.stateGroup text{fill:#999;stroke:none;font-size:10px;}#dgm7 g.stateGroup text{fill:#000000;stroke:none;font-size:10px;}#dgm7 g.stateGroup .state-title{font-weight:bolder;fill:#111111;}#dgm7 g.stateGroup rect{fill:#eee;stroke:#999;}#dgm7 g.stateGroup line{stroke:#666;stroke-width:1;}#dgm7 .transition{stroke:#000;stroke-width:1;fill:none;}#dgm7 .stateGroup .composit{fill:#ffffff;border-bottom:1px;}#dgm7 .stateGroup .alt-composit{fill:#e0e0e0;border-bottom:1px;}#dgm7 .state-note{stroke:#999;fill:#666;}#dgm7 .state-note text{fill:#fff;stroke:none;font-size:10px;}#dgm7 .stateLabel .box{stroke:none;stroke-width:0;fill:#eee;opacity:0.5;}#dgm7 .edgeLabel .label rect{fill:#eee;opacity:0.5;}#dgm7 .edgeLabel .label text{fill:#000000;}#dgm7 .label div .edgeLabel{color:#000000;}#dgm7 .stateLabel text{fill:#111111;font-size:10px;font-weight:bold;}#dgm7 .node circle.state-start{fill:#222;stroke:#222;}#dgm7 .node .fork-join{fill:#222;stroke:#222;}#dgm7 .node circle.state-end{fill:hsl(0, 0%, 83.3333333333%);stroke:#ffffff;stroke-width:1.5;}#dgm7 .end-state-inner{fill:#ffffff;stroke-width:1.5;}#dgm7 .node rect{fill:#eee;stroke:#000;stroke-width:1px;}#dgm7 .node polygon{fill:#eee;stroke:#000;stroke-width:1px;}#dgm7 #statediagram-barbEnd{fill:#666;}#dgm7 .statediagram-cluster rect{fill:#eee;stroke:#000;stroke-width:1px;}#dgm7 .cluster-label,#dgm7 .nodeLabel{color:#111111;}#dgm7 .statediagram-cluster rect.outer{rx:5px;ry:5px;}#dgm7 .statediagram-state .divider{stroke:#000;}#dgm7 .statediagram-state .title-state{rx:5px;ry:5px;}#dgm7 .statediagram-cluster.statediagram-cluster .inner{fill:#ffffff;}#dgm7 .statediagram-cluster.statediagram-cluster-alt .inner{fill:#f4f4f4;}#dgm7 .statediagram-cluster .inner{rx:0;ry:0;}#dgm7 .statediagram-state rect.basic{rx:5px;ry:5px;}#dgm7 .statediagram-state rect.divider{stroke-dasharray:10,10;fill:#f4f4f4;}#dgm7 .note-edge{stroke-dasharray:5;}#dgm7 .statediagram-note rect{fill:#666;stroke:#999;stroke-width:1px;rx:0;ry:0;}#dgm7 .statediagram-note rect{fill:#666;stroke:#999;stroke-width:1px;rx:0;ry:0;}#dgm7 .statediagram-note text{fill:#fff;}#dgm7 .statediagram-note .nodeLabel{color:#fff;}#dgm7 .statediagram .edgeLabel{color:red;}#dgm7 #dependencyStart,#dgm7 #dependencyEnd{fill:#666;stroke:#666;stroke-width:1;}#dgm7 .statediagramTitleText{text-anchor:middle;font-size:18px;fill:#000000;}#dgm7 :root{--mermaid-font-family:Arial,"Liberation Sans",Helvetica,sans-serif;}</style><g><defs><marker id="dgm7_statediagram-barbEnd" refX="19" refY="7" markerWidth="20" markerHeight="14" markerUnits="strokeWidth" orient="auto"><path d="M 19,7 L9,13 L14,7 L9,1 Z"></path></marker></defs><g class="root"><g class="clusters"></g><g class="edgePaths"><path d="M225.271,22L225.271,26.167C225.271,30.333,225.271,38.667,225.271,47C225.271,55.333,225.271,63.667,225.271,67.833L225.271,72" id="edge0" class="edge-thickness-normal transition" style="fill:none" marker-end="url(#dgm7_statediagram-barbEnd)"></path><path d="M189.303,101.157L172.743,107.214C156.183,113.271,123.063,125.386,126.719,137.752C130.374,150.119,170.805,162.738,191.021,169.047L211.236,175.357" id="edge1" class="edge-thickness-normal transition" style="fill:none" marker-end="url(#dgm7_statediagram-barbEnd)"></path><path d="M285.846,181.662L298.265,179.885C310.684,178.108,335.523,174.554,351.047,172.777C366.571,171,372.781,171,378.99,173.667C385.2,176.333,391.41,181.667,391.41,187C391.41,192.333,385.2,197.667,378.99,200.333C372.781,203,366.571,203,351.047,201.223C335.523,199.446,310.684,195.892,298.265,194.115L285.846,192.338" id="edge2" class="edge-thickness-normal transition" style="fill:none" marker-end="url(#dgm7_statediagram-barbEnd)"></path><path d="M211.236,197.542L188.259,204.035C165.283,210.528,119.329,223.514,96.352,235.59C73.375,247.667,73.375,258.833,73.375,264.417L73.375,270" id="edge3" class="edge-thickness-normal transition" style="fill:none" marker-end="url(#dgm7_statediagram-barbEnd)"></path><path d="M257.336,171L260.406,165.417C263.475,159.833,269.613,148.667,266.989,137.5C264.364,126.333,252.976,115.167,247.282,109.583L241.588,104" id="edge4" class="edge-thickness-normal transition" style="fill:none" marker-end="url(#dgm7_statediagram-barbEnd)"></path><path d="M285.846,179.25L319.34,172.292C352.835,165.333,419.825,151.417,415.724,137.343C411.623,123.269,336.432,109.038,298.836,101.923L261.24,94.807" id="edge5" class="edge-thickness-normal transition" style="fill:none" marker-end="url(#dgm7_statediagram-barbEnd)"></path><path d="M285.846,194.246L322.102,201.288C358.358,208.331,430.87,222.415,467.127,235.041C503.383,247.667,503.383,258.833,503.383,264.417L503.383,270" id="edge6" class="edge-thickness-normal transition" style="fill:none" marker-end="url(#dgm7_statediagram-barbEnd)"></path><path d="M245.101,203L243.901,208.583C242.7,214.167,240.299,225.333,239.099,236.5C237.898,247.667,237.898,258.833,237.898,264.417L237.898,270" id="edge7" class="edge-thickness-normal transition" style="fill:none" marker-end="url(#dgm7_statediagram-barbEnd)"></path><path d="M73.375,302L73.375,306.167C73.375,310.333,73.375,318.667,97.549,327.926C121.724,337.186,170.073,347.371,194.247,352.464L218.422,357.557" id="edge8" class="edge-thickness-normal transition" style="fill:none" marker-end="url(#dgm7_statediagram-barbEnd)"></path><path d="M237.898,302L237.898,306.167C237.898,310.333,237.898,318.667,236.222,327.081C234.546,335.496,231.193,343.992,229.517,348.24L227.841,352.489" id="edge9" class="edge-thickness-normal transition" style="fill:none" marker-end="url(#dgm7_statediagram-barbEnd)"></path><path d="M503.383,302L503.383,306.167C503.383,310.333,503.383,318.667,458.19,328.033C412.997,337.4,322.611,347.8,277.418,353L232.226,358.2" id="edge10" class="edge-thickness-normal transition" style="fill:none" marker-end="url(#dgm7_statediagram-barbEnd)"></path></g><g class="edgeLabels"><g class="edgeLabel"><g class="label" transform="translate(0, 0)"><rect rx="0" ry="0" width="0" height="0"></rect><text style=""><tspan xml:space="preserve" dy="1em" x="0" class="row"></tspan></text></g></g><g class="edgeLabel" transform="translate(89.943359375, 137.5)"><g class="label" transform="translate(-70.79296875, -8.5)"><rect rx="0" ry="0" width="141.5859375" height="17"></rect><text style=""><tspan xml:space="preserve" dy="1em" x="0" class="row">worker claims lease</tspan></text></g></g><g class="edgeLabel" transform="translate(397.619140625, 187)"><g class="label" transform="translate(-76.7734375, -8.5)"><rect rx="0" ry="0" width="153.546875" height="17"></rect><text style=""><tspan xml:space="preserve" dy="1em" x="0" class="row">heartbeat, checkpoint</tspan></text></g></g><g class="edgeLabel" transform="translate(73.375, 236.5)"><g class="label" transform="translate(-65.375, -8.5)"><rect rx="0" ry="0" width="130.75" height="17"></rect><text style=""><tspan xml:space="preserve" dy="1em" x="0" class="row">handler completes</tspan></text></g></g><g class="edgeLabel" transform="translate(275.751953125, 137.5)"><g class="label" transform="translate(-95.015625, -8.5)"><rect rx="0" ry="0" width="190.03125" height="17"></rect><text style=""><tspan xml:space="preserve" dy="1em" x="0" class="row">failure, backoff before retry</tspan></text></g></g><g class="edgeLabel" transform="translate(486.814453125, 137.5)"><g class="label" transform="translate(-96.046875, -8.5)"><rect rx="0" ry="0" width="192.09375" height="17"></rect><text style=""><tspan xml:space="preserve" dy="1em" x="0" class="row">lease expired - worker died</tspan></text></g></g><g class="edgeLabel" transform="translate(503.3828125, 236.5)"><g class="label" transform="translate(-166.3359375, -8.5)"><rect rx="0" ry="0" width="332.671875" height="17"></rect><text style=""><tspan xml:space="preserve" dy="1em" x="0" class="row">cancel requested, observed at chunk boundary</tspan></text></g></g><g class="edgeLabel" transform="translate(237.8984375, 236.5)"><g class="label" transform="translate(-79.1484375, -8.5)"><rect rx="0" ry="0" width="158.296875" height="17"></rect><text style=""><tspan xml:space="preserve" dy="1em" x="0" class="row">max attempts reached</tspan></text></g></g><g class="edgeLabel"><g class="label" transform="translate(0, 0)"><rect rx="0" ry="0" width="0" height="0"></rect><text style=""><tspan xml:space="preserve" dy="1em" x="0" class="row"></tspan></text></g></g><g class="edgeLabel"><g class="label" transform="translate(0, 0)"><rect rx="0" ry="0" width="0" height="0"></rect><text style=""><tspan xml:space="preserve" dy="1em" x="0" class="row"></tspan></text></g></g><g class="edgeLabel"><g class="label" transform="translate(0, 0)"><rect rx="0" ry="0" width="0" height="0"></rect><text style=""><tspan xml:space="preserve" dy="1em" x="0" class="row"></tspan></text></g></g></g><g class="nodes"><g class="node default" id="state-root_start-0" data-node="true" data-id="root_start" transform="translate(225.271484375, 15)"><circle class="state-start" r="7" width="14" height="14"></circle></g><g class="node  statediagram-state undefined" id="state-Queued-5" data-node="true" data-id="Queued" transform="translate(225.271484375, 88)"><rect class="basic label-container" style="" x="-35.96875" y="-16" width="71.9375" height="32"></rect><g class="label" style="" transform="translate(-28.46875, -8.5)"><rect></rect><text style=""><tspan xml:space="preserve" dy="1em" x="0" class="row">Queued</tspan></text></g></g><g class="node  statediagram-state undefined" id="state-Running-7" data-node="true" data-id="Running" transform="translate(248.541015625, 187)"><rect class="basic label-container" style="" x="-37.3046875" y="-16" width="74.609375" height="32"></rect><g class="label" style="" transform="translate(-29.8046875, -8.5)"><rect></rect><text style=""><tspan xml:space="preserve" dy="1em" x="0" class="row">Running</tspan></text></g></g><g class="node  statediagram-state undefined" id="state-Succeeded-8" data-node="true" data-id="Succeeded" transform="translate(73.375, 286)"><rect class="basic label-container" style="" x="-47.53125" y="-16" width="95.0625" height="32"></rect><g class="label" style="" transform="translate(-40.03125, -8.5)"><rect></rect><text style=""><tspan xml:space="preserve" dy="1em" x="0" class="row">Succeeded</tspan></text></g></g><g class="node  statediagram-state undefined" id="state-Cancelled-10" data-node="true" data-id="Cancelled" transform="translate(503.3828125, 286)"><rect class="basic label-container" style="" x="-43.078125" y="-16" width="86.15625" height="32"></rect><g class="label" style="" transform="translate(-35.578125, -8.5)"><rect></rect><text style=""><tspan xml:space="preserve" dy="1em" x="0" class="row">Cancelled</tspan></text></g></g><g class="node  statediagram-state undefined" id="state-Failed-9" data-node="true" data-id="Failed" transform="translate(237.8984375, 286)"><rect class="basic label-container" style="" x="-29.2890625" y="-16" width="58.578125" height="32"></rect><g class="label" style="" transform="translate(-21.7890625, -8.5)"><rect></rect><text style=""><tspan xml:space="preserve" dy="1em" x="0" class="row">Failed</tspan></text></g></g><g class="node default" id="state-root_end-10" data-node="true" data-id="root_end" transform="translate(225.271484375, 359)"><circle class="state-start" r="7" width="14" height="14"></circle><circle class="state-end" r="5" width="10" height="10"></circle></g></g></g></g></svg>