<?xml version="1.0" encoding="UTF-8"?>
<svg id="dgm2" width="100%" xmlns="http://www.w3.org/2000/svg" style="max-width: 1143px;" viewBox="-8 -8 1143 294.2243957519531" role="graphics-document document" aria-roledescription="flowchart-v2"><rect x="-100000" y="-100000" width="200000" height="200000" fill="#ffffff"/><style>#dgm2{font-family:Arial,"Liberation Sans",Helvetica,sans-serif;font-size:16px;fill:#000000;}#dgm2 .error-icon{fill:#552222;}#dgm2 .error-text{fill:#552222;stroke:#552222;}#dgm2 .edge-thickness-normal{stroke-width:2px;}#dgm2 .edge-thickness-thick{stroke-width:3.5px;}#dgm2 .edge-pattern-solid{stroke-dasharray:0;}#dgm2 .edge-pattern-dashed{stroke-dasharray:3;}#dgm2 .edge-pattern-dotted{stroke-dasharray:2;}#dgm2 .marker{fill:#666;stroke:#666;}#dgm2 .marker.cross{stroke:#666;}#dgm2 svg{font-family:Arial,"Liberation Sans",Helvetica,sans-serif;font-size:16px;}#dgm2 .label{font-family:Arial,"Liberation Sans",Helvetica,sans-serif;color:#000000;}#dgm2 .cluster-label text{fill:#333;}#dgm2 .cluster-label span,#dgm2 p{color:#333;}#dgm2 .label text,#dgm2 span,#dgm2 p{fill:#000000;color:#000000;}#dgm2 .node rect,#dgm2 .node circle,#dgm2 .node ellipse,#dgm2 .node polygon,#dgm2 .node path{fill:#eee;stroke:#999;stroke-width:1px;}#dgm2 .flowchart-label text{text-anchor:middle;}#dgm2 .node .katex path{fill:#000;stroke:#000;stroke-width:1px;}#dgm2 .node .label{text-align:center;}#dgm2 .node.clickable{cursor:pointer;}#dgm2 .arrowheadPath{fill:#333333;}#dgm2 .edgePath .path{stroke:#666;stroke-width:2.0px;}#dgm2 .flowchart-link{stroke:#666;fill:none;}#dgm2 .edgeLabel{background-color:white;text-align:center;}#dgm2 .edgeLabel rect{opacity:0.5;background-color:white;fill:white;}#dgm2 .labelBkg{background-color:rgba(255, 255, 255, 0.5);}#dgm2 .cluster rect{fill:hsl(0, 0%, 98.9215686275%);stroke:#707070;stroke-width:1px;}#dgm2 .cluster text{fill:#333;}#dgm2 .cluster span,#dgm2 p{color:#333;}#dgm2 div.mermaidTooltip{position:absolute;text-align:center;max-width:200px;padding:2px;font-family:Arial,"Liberation Sans",Helvetica,sans-serif;font-size:12px;background:hsl(-160, 0%, 93.3333333333%);border:1px solid #707070;border-radius:2px;pointer-events:none;z-index:100;}#dgm2 .flowchartTitleText{text-anchor:middle;font-size:18px;fill:#000000;}#dgm2 :root{--mermaid-font-family:Arial,"Liberation Sans",Helvetica,sans-serif;}#dgm2 .store rect{fill:rgb(230, 238, 248)!important;stroke:rgb(59, 110, 165)!important;color:rgb(17, 17, 17)!important;}#dgm2 .store polygon{fill:rgb(230, 238, 248)!important;stroke:rgb(59, 110, 165)!important;color:rgb(17, 17, 17)!important;}#dgm2 .store ellipse{fill:rgb(230, 238, 248)!important;stroke:rgb(59, 110, 165)!important;color:rgb(17, 17, 17)!important;}#dgm2 .store circle{fill:rgb(230, 238, 248)!important;stroke:rgb(59, 110, 165)!important;color:rgb(17, 17, 17)!important;}#dgm2 .store path{fill:rgb(230, 238, 248)!important;stroke:rgb(59, 110, 165)!important;color:rgb(17, 17, 17)!important;}#dgm2 .store tspan{fill:rgb(17, 17, 17)!important;}</style><g><marker id="dgm2_flowchart-pointEnd" class="marker flowchart" viewBox="0 0 10 10" refX="6" refY="5" markerUnits="userSpaceOnUse" markerWidth="12" markerHeight="12" orient="auto"><path d="M 0 0 L 10 5 L 0 10 z" class="arrowMarkerPath" style="stroke-width: 1; stroke-dasharray: 1, 0;"></path></marker><marker id="dgm2_flowchart-pointStart" class="marker flowchart" viewBox="0 0 10 10" refX="4.5" refY="5" markerUnits="userSpaceOnUse" markerWidth="12" markerHeight="12" orient="auto"><path d="M 0 5 L 10 10 L 10 0 z" class="arrowMarkerPath" style="stroke-width: 1; stroke-dasharray: 1, 0;"></path></marker><marker id="dgm2_flowchart-circleEnd" class="marker flowchart" viewBox="0 0 10 10" refX="11" refY="5" markerUnits="userSpaceOnUse" markerWidth="11" markerHeight="11" orient="auto"><circle cx="5" cy="5" r="5" class="arrowMarkerPath" style="stroke-width: 1; stroke-dasharray: 1, 0;"></circle></marker><marker id="dgm2_flowchart-circleStart" class="marker flowchart" viewBox="0 0 10 10" refX="-1" refY="5" markerUnits="userSpaceOnUse" markerWidth="11" markerHeight="11" orient="auto"><circle cx="5" cy="5" r="5" class="arrowMarkerPath" style="stroke-width: 1; stroke-dasharray: 1, 0;"></circle></marker><marker id="dgm2_flowchart-crossEnd" class="marker cross flowchart" viewBox="0 0 11 11" refX="12" refY="5.2" markerUnits="userSpaceOnUse" markerWidth="11" markerHeight="11" orient="auto"><path d="M 1,1 l 9,9 M 10,1 l -9,9" class="arrowMarkerPath" style="stroke-width: 2; stroke-dasharray: 1, 0;"></path></marker><marker id="dgm2_flowchart-crossStart" class="marker cross flowchart" viewBox="0 0 11 11" refX="-1" refY="5.2" markerUnits="userSpaceOnUse" markerWidth="11" markerHeight="11" orient="auto"><path d="M 1,1 l 9,9 M 10,1 l -9,9" class="arrowMarkerPath" style="stroke-width: 2; stroke-dasharray: 1, 0;"></path></marker><g class="root"><g class="clusters"></g><g class="edgePaths"><path d="M63.906,134.485L76.154,132.83C88.401,131.175,112.896,127.864,136.51,127.026C160.123,126.187,182.856,127.82,194.222,128.636L205.589,129.453" id="L-C-API-0" class="edge-thickness-normal edge-pattern-solid flowchart-link LS-C LE-API" style="fill:none;" marker-end="url(#dgm2_flowchart-pointEnd)"></path><path d="M210.875,147.776L198.628,148.655C186.38,149.535,161.885,151.295,138.266,150.637C114.647,149.98,91.903,146.906,80.531,145.369L69.158,143.832" id="L-API-C-0" class="edge-thickness-normal edge-pattern-solid flowchart-link LS-API LE-C" style="fill:none;" marker-end="url(#dgm2_flowchart-pointEnd)"></path><path d="M460.672,138.804L464.839,138.804C469.005,138.804,477.339,138.804,484.789,138.804C492.239,138.804,498.805,138.804,502.089,138.804L505.372,138.804" id="L-API-LOG-0" class="edge-thickness-normal edge-pattern-solid flowchart-link LS-API LE-LOG" style="fill:none;" marker-end="url(#dgm2_flowchart-pointEnd)"></path><path d="M651.617,94.867L662.808,83.989C674,73.112,696.383,51.357,711.071,40.479C725.759,29.601,732.753,29.601,736.25,29.601L739.747,29.601" id="L-LOG-W1-0" class="edge-thickness-normal edge-pattern-solid flowchart-link LS-LOG LE-W1" style="fill:none;" marker-end="url(#dgm2_flowchart-pointEnd)"></path><path d="M693.766,138.804L697.932,138.804C702.099,138.804,710.432,138.804,718.096,138.804C725.759,138.804,732.753,138.804,736.25,138.804L739.747,138.804" id="L-LOG-W2-0" class="edge-thickness-normal edge-pattern-solid flowchart-link LS-LOG LE-W2" style="fill:none;" marker-end="url(#dgm2_flowchart-pointEnd)"></path><path d="M651.478,182.755L662.693,193.682C673.907,204.609,696.336,226.462,710.834,237.388C725.332,248.315,731.899,248.315,735.182,248.315L738.466,248.315" id="L-LOG-W3-0" class="edge-thickness-normal edge-pattern-solid flowchart-link LS-LOG LE-W3" style="fill:none;" marker-end="url(#dgm2_flowchart-pointEnd)"></path><path d="M918.438,29.601L929.783,29.601C941.128,29.601,963.818,29.601,985.624,29.601C1007.431,29.601,1028.355,29.601,1038.816,29.601L1049.278,29.601" id="L-W1-S1-0" class="edge-thickness-normal edge-pattern-solid flowchart-link LS-W1 LE-S1" style="fill:none;" marker-end="url(#dgm2_flowchart-pointEnd)"></path><path d="M918.438,138.804L929.783,138.804C941.128,138.804,963.818,138.804,985.624,138.804C1007.431,138.804,1028.355,138.804,1038.816,138.804L1049.278,138.804" id="L-W2-S2-0" class="edge-thickness-normal edge-pattern-solid flowchart-link LS-W2 LE-S2" style="fill:none;" marker-end="url(#dgm2_flowchart-pointEnd)"></path><path d="M919.719,248.315L930.85,248.315C941.982,248.315,964.245,248.315,985.624,248.315C1007.004,248.315,1027.501,248.315,1037.749,248.315L1047.997,248.315" id="L-W3-S3-0" class="edge-thickness-normal edge-pattern-solid flowchart-link LS-W3 LE-S3" style="fill:none;" marker-end="url(#dgm2_flowchart-pointEnd)"></path></g><g class="edgeLabels"><g class="edgeLabel"><g class="label" transform="translate(0, 0)"><rect rx="0" ry="0" width="0" height="0"></rect><text style=""><tspan xml:space="preserve" dy="1em" x="0" class="row"></tspan></text></g></g><g class="edgeLabel" transform="translate(137.390625, 153.0539894104004)"><g class="label" transform="translate(-48.484375, -8.5)"><rect rx="0" ry="0" width="96.87686157226562" height="17.00032615661621"></rect><text style=""><tspan xml:space="preserve" dy="1em" x="0" class="row">202 Accepted</tspan></text></g></g><g class="edgeLabel"><g class="label" transform="translate(0, 0)"><rect rx="0" ry="0" width="0" height="0"></rect><text style=""><tspan xml:space="preserve" dy="1em" x="0" class="row"></tspan></text></g></g><g class="edgeLabel"><g class="label" transform="translate(0, 0)"><rect rx="0" ry="0" width="0" height="0"></rect><text style=""><tspan xml:space="preserve" dy="1em" x="0" class="row"></tspan></text></g></g><g class="edgeLabel"><g class="label" transform="translate(0, 0)"><rect rx="0" ry="0" width="0" height="0"></rect><text style=""><tspan xml:space="preserve" dy="1em" x="0" class="row"></tspan></text></g></g><g class="edgeLabel"><g class="label" transform="translate(0, 0)"><rect rx="0" ry="0" width="0" height="0"></rect><text style=""><tspan xml:space="preserve" dy="1em" x="0" class="row"></tspan></text></g></g><g class="edgeLabel" transform="translate(986.5078125, 29.601329803466797)"><g class="label" transform="translate(-41.7890625, -8.5)"><rect rx="0" ry="0" width="83.50160217285156" height="17.00032615661621"></rect><text style=""><tspan xml:space="preserve" dy="1em" x="0" class="row">micro-batch</tspan></text></g></g><g class="edgeLabel" transform="translate(986.5078125, 138.8039894104004)"><g class="label" transform="translate(-41.7890625, -8.5)"><rect rx="0" ry="0" width="83.50160217285156" height="17.00032615661621"></rect><text style=""><tspan xml:space="preserve" dy="1em" x="0" class="row">micro-batch</tspan></text></g></g><g class="edgeLabel" transform="translate(986.5078125, 248.31485176086426)"><g class="label" transform="translate(-41.7890625, -8.5)"><rect rx="0" ry="0" width="83.50160217285156" height="17.00032615661621"></rect><text style=""><tspan xml:space="preserve" dy="1em" x="0" class="row">micro-batch</tspan></text></g></g></g><g class="nodes"><g class="node default default flowchart-label" id="flowchart-C-36" data-node="true" data-id="C" transform="translate(31.953125, 138.8039894104004)"><rect class="basic label-container" style="" rx="0" ry="0" x="-31.953125" y="-16" width="63.90625" height="32"></rect><g class="label" style="" transform="translate(0, -8.5)"><rect></rect><text style=""><tspan xml:space="preserve" dy="1em" x="0" class="row">Clients</tspan></text></g></g><g class="node default default flowchart-label" id="flowchart-API-37" data-node="true" data-id="API" transform="translate(335.7734375, 138.8039894104004)"><rect class="basic label-container" style="" rx="0" ry="0" x="-124.8984375" y="-24" width="249.796875" height="48"></rect><g class="label" style="" transform="translate(0, -16.5)"><rect></rect><text style=""><tspan xml:space="preserve" dy="1em" x="0" class="row">API</tspan><tspan xml:space="preserve" dy="1em" x="0" class="row">validate, assign idempotency key</tspan></text></g></g><g class="node default store flowchart-label" id="flowchart-LOG-41" data-node="true" data-id="LOG" transform="translate(602.21875, 138.8039894104004)"><path style="" d="M 0,14.856983466883051 a 91.546875,14.856983466883051 0,0,0 183.09375 0 a 91.546875,14.856983466883051 0,0,0 -183.09375 0 l 0,62.85698346688305 a 91.546875,14.856983466883051 0,0,0 183.09375 0 l 0,-62.85698346688305" transform="translate(-91.546875,-46.285475200324576)"></path><g class="label" style="" transform="translate(0, -16.5)"><rect></rect><text style=""><tspan xml:space="preserve" dy="1em" x="0" class="row">Durable log</tspan><tspan xml:space="preserve" dy="1em" x="0" class="row">partitioned by entity key</tspan></text></g></g><g class="node default default flowchart-label" id="flowchart-W1-43" data-node="true" data-id="W1" transform="translate(831.7421875, 29.601329803466797)"><rect class="basic label-container" style="" rx="0" ry="0" x="-86.6953125" y="-16" width="173.390625" height="32"></rect><g class="label" style="" transform="translate(0, -8.5)"><rect></rect><text style=""><tspan xml:space="preserve" dy="1em" x="0" class="row">Consumer - partition 0</tspan></text></g></g><g class="node default default flowchart-label" id="flowchart-W2-45" data-node="true" data-id="W2" transform="translate(831.7421875, 138.8039894104004)"><rect class="basic label-container" style="" rx="0" ry="0" x="-86.6953125" y="-16" width="173.390625" height="32"></rect><g class="label" style="" transform="translate(0, -8.5)"><rect></rect><text style=""><tspan xml:space="preserve" dy="1em" x="0" class="row">Consumer - partition 1</tspan></text></g></g><g class="node default default flowchart-label" id="flowchart-W3-47" data-node="true" data-id="W3" transform="translate(831.7421875, 248.31485176086426)"><rect class="basic label-container" style="" rx="0" ry="0" x="-87.9765625" y="-16" width="175.953125" height="32"></rect><g class="label" style="" transform="translate(0, -8.5)"><rect></rect><text style=""><tspan xml:space="preserve" dy="1em" x="0" class="row">Consumer - partition N</tspan></text></g></g><g class="node default store flowchart-label" id="flowchart-S1-49" data-node="true" data-id="S1" transform="translate(1090.1484375, 29.601329803466797)"><path style="" d="M 0,9.06755357285111 a 35.5703125,9.06755357285111 0,0,0 71.140625 0 a 35.5703125,9.06755357285111 0,0,0 -71.140625 0 l 0,41.06755357285111 a 35.5703125,9.06755357285111 0,0,0 71.140625 0 l 0,-41.06755357285111" transform="translate(-35.5703125,-29.601330359276666)"></path><g class="label" style="" transform="translate(0, -8.5)"><rect></rect><text style=""><tspan xml:space="preserve" dy="1em" x="0" class="row">Shard 0</tspan></text></g></g><g class="node default store flowchart-label" id="flowchart-S2-51" data-node="true" data-id="S2" transform="translate(1090.1484375, 138.8039894104004)"><path style="" d="M 0,9.06755357285111 a 35.5703125,9.06755357285111 0,0,0 71.140625 0 a 35.5703125,9.06755357285111 0,0,0 -71.140625 0 l 0,41.06755357285111 a 35.5703125,9.06755357285111 0,0,0 71.140625 0 l 0,-41.06755357285111" transform="translate(-35.5703125,-29.601330359276666)"></path><g class="label" style="" transform="translate(0, -8.5)"><rect></rect><text style=""><tspan xml:space="preserve" dy="1em" x="0" class="row">Shard 1</tspan></text></g></g><g class="node default store flowchart-label" id="flowchart-S3-53" data-node="true" data-id="S3" transform="translate(1090.1484375, 248.31485176086426)"><path style="" d="M 0,9.273020366438626 a 36.8515625,9.273020366438626 0,0,0 73.703125 0 a 36.8515625,9.273020366438626 0,0,0 -73.703125 0 l 0,41.27302036643863 a 36.8515625,9.273020366438626 0,0,0 73.703125 0 l 0,-41.27302036643863" transform="translate(-36.8515625,-29.90953054965794)"></path><g class="label" style="" transform="translate(0, -8.5)"><rect></rect><text style=""><tspan xml:space="preserve" dy="1em" x="0" class="row">Shard N</tspan></text></g></g></g></g></g></svg>