<?xml version="1.0" encoding="UTF-8"?>
<svg id="dgm17" width="100%" xmlns="http://www.w3.org/2000/svg" style="max-width: 1741.96875px;" viewBox="-8 -8 1741.96875 250" role="graphics-document document" aria-roledescription="flowchart-v2"><rect x="-100000" y="-100000" width="200000" height="200000" fill="#ffffff"/><style>#dgm17{font-family:Arial,"Liberation Sans",Helvetica,sans-serif;font-size:16px;fill:#000000;}#dgm17 .error-icon{fill:#552222;}#dgm17 .error-text{fill:#552222;stroke:#552222;}#dgm17 .edge-thickness-normal{stroke-width:2px;}#dgm17 .edge-thickness-thick{stroke-width:3.5px;}#dgm17 .edge-pattern-solid{stroke-dasharray:0;}#dgm17 .edge-pattern-dashed{stroke-dasharray:3;}#dgm17 .edge-pattern-dotted{stroke-dasharray:2;}#dgm17 .marker{fill:#666;stroke:#666;}#dgm17 .marker.cross{stroke:#666;}#dgm17 svg{font-family:Arial,"Liberation Sans",Helvetica,sans-serif;font-size:16px;}#dgm17 .label{font-family:Arial,"Liberation Sans",Helvetica,sans-serif;color:#000000;}#dgm17 .cluster-label text{fill:#333;}#dgm17 .cluster-label span,#dgm17 p{color:#333;}#dgm17 .label text,#dgm17 span,#dgm17 p{fill:#000000;color:#000000;}#dgm17 .node rect,#dgm17 .node circle,#dgm17 .node ellipse,#dgm17 .node polygon,#dgm17 .node path{fill:#eee;stroke:#999;stroke-width:1px;}#dgm17 .flowchart-label text{text-anchor:middle;}#dgm17 .node .katex path{fill:#000;stroke:#000;stroke-width:1px;}#dgm17 .node .label{text-align:center;}#dgm17 .node.clickable{cursor:pointer;}#dgm17 .arrowheadPath{fill:#333333;}#dgm17 .edgePath .path{stroke:#666;stroke-width:2.0px;}#dgm17 .flowchart-link{stroke:#666;fill:none;}#dgm17 .edgeLabel{background-color:white;text-align:center;}#dgm17 .edgeLabel rect{opacity:0.5;background-color:white;fill:white;}#dgm17 .labelBkg{background-color:rgba(255, 255, 255, 0.5);}#dgm17 .cluster rect{fill:hsl(0, 0%, 98.9215686275%);stroke:#707070;stroke-width:1px;}#dgm17 .cluster text{fill:#333;}#dgm17 .cluster span,#dgm17 p{color:#333;}#dgm17 div.mermaidTooltip{position:absolute;text-align:center;max-width:200px;padding:2px;font-family:Arial,"Liberation Sans",Helvetica,sans-serif;font-size:12px;background:hsl(-160, 0%, 93.3333333333%);border:1px solid #707070;border-radius:2px;pointer-events:none;z-index:100;}#dgm17 .flowchartTitleText{text-anchor:middle;font-size:18px;fill:#000000;}#dgm17 :root{--mermaid-font-family:Arial,"Liberation Sans",Helvetica,sans-serif;}#dgm17 .store rect{fill:rgb(230, 238, 248)!important;stroke:rgb(59, 110, 165)!important;color:rgb(17, 17, 17)!important;}#dgm17 .store polygon{fill:rgb(230, 238, 248)!important;stroke:rgb(59, 110, 165)!important;color:rgb(17, 17, 17)!important;}#dgm17 .store ellipse{fill:rgb(230, 238, 248)!important;stroke:rgb(59, 110, 165)!important;color:rgb(17, 17, 17)!important;}#dgm17 .store circle{fill:rgb(230, 238, 248)!important;stroke:rgb(59, 110, 165)!important;color:rgb(17, 17, 17)!important;}#dgm17 .store path{fill:rgb(230, 238, 248)!important;stroke:rgb(59, 110, 165)!important;color:rgb(17, 17, 17)!important;}#dgm17 .store tspan{fill:rgb(17, 17, 17)!important;}</style><g><marker id="dgm17_flowchart-pointEnd" class="marker flowchart" viewBox="0 0 10 10" refX="6" refY="5" markerUnits="userSpaceOnUse" markerWidth="12" markerHeight="12" orient="auto"><path d="M 0 0 L 10 5 L 0 10 z" class="arrowMarkerPath" style="stroke-width: 1; stroke-dasharray: 1, 0;"></path></marker><marker id="dgm17_flowchart-pointStart" class="marker flowchart" viewBox="0 0 10 10" refX="4.5" refY="5" markerUnits="userSpaceOnUse" markerWidth="12" markerHeight="12" orient="auto"><path d="M 0 5 L 10 10 L 10 0 z" class="arrowMarkerPath" style="stroke-width: 1; stroke-dasharray: 1, 0;"></path></marker><marker id="dgm17_flowchart-circleEnd" class="marker flowchart" viewBox="0 0 10 10" refX="11" refY="5" markerUnits="userSpaceOnUse" markerWidth="11" markerHeight="11" orient="auto"><circle cx="5" cy="5" r="5" class="arrowMarkerPath" style="stroke-width: 1; stroke-dasharray: 1, 0;"></circle></marker><marker id="dgm17_flowchart-circleStart" class="marker flowchart" viewBox="0 0 10 10" refX="-1" refY="5" markerUnits="userSpaceOnUse" markerWidth="11" markerHeight="11" orient="auto"><circle cx="5" cy="5" r="5" class="arrowMarkerPath" style="stroke-width: 1; stroke-dasharray: 1, 0;"></circle></marker><marker id="dgm17_flowchart-crossEnd" class="marker cross flowchart" viewBox="0 0 11 11" refX="12" refY="5.2" markerUnits="userSpaceOnUse" markerWidth="11" markerHeight="11" orient="auto"><path d="M 1,1 l 9,9 M 10,1 l -9,9" class="arrowMarkerPath" style="stroke-width: 2; stroke-dasharray: 1, 0;"></path></marker><marker id="dgm17_flowchart-crossStart" class="marker cross flowchart" viewBox="0 0 11 11" refX="-1" refY="5.2" markerUnits="userSpaceOnUse" markerWidth="11" markerHeight="11" orient="auto"><path d="M 1,1 l 9,9 M 10,1 l -9,9" class="arrowMarkerPath" style="stroke-width: 2; stroke-dasharray: 1, 0;"></path></marker><g class="root"><g class="clusters"><g class="cluster default flowchart-label" id="QRY"><rect style="" rx="0" ry="0" x="465.1328125" y="0" width="1260.8359375" height="112"></rect><g class="cluster-label" transform="translate(1095.55078125, 0)"><text style=""><tspan xml:space="preserve" dy="1em" x="0" class="row">Online query</tspan></text></g></g><g class="cluster default flowchart-label" id="ING"><rect style="" rx="0" ry="0" x="0" y="132" width="628.8515625" height="102"></rect><g class="cluster-label" transform="translate(314.42578125, 132)"><text style=""><tspan xml:space="preserve" dy="1em" x="0" class="row">Offline ingestion</tspan></text></g></g></g><g class="edgePaths"><path d="M120.922,183L125.089,183C129.255,183,137.589,183,145.039,183C152.489,183,159.055,183,162.339,183L165.622,183" id="L-D-P-0" class="edge-thickness-normal edge-pattern-solid flowchart-link LS-D LE-P" style="fill:none;" marker-end="url(#dgm17_flowchart-pointEnd)"></path><path d="M227.82,183L231.987,183C236.154,183,244.487,183,251.937,183C259.387,183,265.954,183,269.237,183L272.52,183" id="L-P-CH-0" class="edge-thickness-normal edge-pattern-solid flowchart-link LS-P LE-CH" style="fill:none;" marker-end="url(#dgm17_flowchart-pointEnd)"></path><path d="M415.133,183L419.299,183C423.466,183,431.799,183,440.133,183C448.466,183,456.799,183,468.251,183C479.702,183,494.271,183,501.556,183L508.841,183" id="L-CH-E-0" class="edge-thickness-normal edge-pattern-solid flowchart-link LS-CH LE-E" style="fill:none;" marker-end="url(#dgm17_flowchart-pointEnd)"></path><path d="M579.844,183L588.012,183C596.18,183,612.516,183,624.85,183C637.185,183,645.518,183,652.968,183C660.418,183,666.985,183,670.268,183L673.552,183" id="L-E-IDX-0" class="edge-thickness-normal edge-pattern-solid flowchart-link LS-E LE-IDX" style="fill:none;" marker-end="url(#dgm17_flowchart-pointEnd)"></path><path d="M603.852,51L608.018,51C612.185,51,620.518,51,628.852,51C637.185,51,645.518,51,657.929,51C670.339,51,686.826,51,695.07,51L703.313,51" id="L-U-RW-0" class="edge-thickness-normal edge-pattern-solid flowchart-link LS-U LE-RW" style="fill:none;" marker-end="url(#dgm17_flowchart-pointEnd)"></path><path d="M777.949,51L787.076,51C796.203,51,814.457,51,826.873,51.389C839.29,51.778,845.869,52.556,849.158,52.945L852.448,53.334" id="L-RW-RET-0" class="edge-thickness-normal edge-pattern-solid flowchart-link LS-RW LE-RET" style="fill:none;" marker-end="url(#dgm17_flowchart-pointEnd)"></path><path d="M976.844,61L981.01,61C985.177,61,993.51,61,1000.96,61C1008.41,61,1014.977,61,1018.26,61L1021.544,61" id="L-RET-RK-0" class="edge-thickness-normal edge-pattern-solid flowchart-link LS-RET LE-RK" style="fill:none;" marker-end="url(#dgm17_flowchart-pointEnd)"></path><path d="M1094.422,61L1098.589,61C1102.755,61,1111.089,61,1118.539,61C1125.989,61,1132.555,61,1135.839,61L1139.122,61" id="L-RK-CTX-0" class="edge-thickness-normal edge-pattern-solid flowchart-link LS-RK LE-CTX" style="fill:none;" marker-end="url(#dgm17_flowchart-pointEnd)"></path><path d="M1286.258,61L1290.424,61C1294.591,61,1302.924,61,1310.374,61C1317.824,61,1324.391,61,1327.674,61L1330.958,61" id="L-CTX-LLM-0" class="edge-thickness-normal edge-pattern-solid flowchart-link LS-CTX LE-LLM" style="fill:none;" marker-end="url(#dgm17_flowchart-pointEnd)"></path><path d="M1514.008,61L1518.174,61C1522.341,61,1530.674,61,1538.124,61C1545.574,61,1552.141,61,1555.424,61L1558.708,61" id="L-LLM-GC-0" class="edge-thickness-normal edge-pattern-solid flowchart-link LS-LLM LE-GC" style="fill:none;" marker-end="url(#dgm17_flowchart-pointEnd)"></path><path d="M772.701,149.365L782.702,137.221C792.704,125.077,812.708,100.788,826.007,88.04C839.307,75.291,845.902,74.082,849.2,73.478L852.498,72.873" id="L-IDX-RET-0" class="edge-thickness-normal edge-pattern-solid flowchart-link LS-IDX LE-RET" style="fill:none;" marker-end="url(#dgm17_flowchart-pointEnd)"></path></g><g class="edgeLabels"><g class="edgeLabel"><g class="label" transform="translate(0, 0)"><rect rx="0" ry="0" width="0" height="0"></rect><text style=""><tspan xml:space="preserve" dy="1em" x="0" class="row"></tspan></text></g></g><g class="edgeLabel"><g class="label" transform="translate(0, 0)"><rect rx="0" ry="0" width="0" height="0"></rect><text style=""><tspan xml:space="preserve" dy="1em" x="0" class="row"></tspan></text></g></g><g class="edgeLabel"><g class="label" transform="translate(0, 0)"><rect rx="0" ry="0" width="0" height="0"></rect><text style=""><tspan xml:space="preserve" dy="1em" x="0" class="row"></tspan></text></g></g><g class="edgeLabel"><g class="label" transform="translate(0, 0)"><rect rx="0" ry="0" width="0" height="0"></rect><text style=""><tspan xml:space="preserve" dy="1em" x="0" class="row"></tspan></text></g></g><g class="edgeLabel"><g class="label" transform="translate(0, 0)"><rect rx="0" ry="0" width="0" height="0"></rect><text style=""><tspan xml:space="preserve" dy="1em" x="0" class="row"></tspan></text></g></g><g class="edgeLabel"><g class="label" transform="translate(0, 0)"><rect rx="0" ry="0" width="0" height="0"></rect><text style=""><tspan xml:space="preserve" dy="1em" x="0" class="row"></tspan></text></g></g><g class="edgeLabel"><g class="label" transform="translate(0, 0)"><rect rx="0" ry="0" width="0" height="0"></rect><text style=""><tspan xml:space="preserve" dy="1em" x="0" class="row"></tspan></text></g></g><g class="edgeLabel"><g class="label" transform="translate(0, 0)"><rect rx="0" ry="0" width="0" height="0"></rect><text style=""><tspan xml:space="preserve" dy="1em" x="0" class="row"></tspan></text></g></g><g class="edgeLabel"><g class="label" transform="translate(0, 0)"><rect rx="0" ry="0" width="0" height="0"></rect><text style=""><tspan xml:space="preserve" dy="1em" x="0" class="row"></tspan></text></g></g><g class="edgeLabel"><g class="label" transform="translate(0, 0)"><rect rx="0" ry="0" width="0" height="0"></rect><text style=""><tspan xml:space="preserve" dy="1em" x="0" class="row"></tspan></text></g></g><g class="edgeLabel"><g class="label" transform="translate(0, 0)"><rect rx="0" ry="0" width="0" height="0"></rect><text style=""><tspan xml:space="preserve" dy="1em" x="0" class="row"></tspan></text></g></g></g><g class="nodes"><g class="node default default flowchart-label" id="flowchart-GC-312" data-node="true" data-id="GC" transform="translate(1632.48828125, 61)"><rect class="basic label-container" style="" rx="0" ry="0" x="-68.48046875" y="-16" width="136.9609375" height="32"></rect><g class="label" style="" transform="translate(0, -8.5)"><rect></rect><text style=""><tspan xml:space="preserve" dy="1em" x="0" class="row">Grounding check</tspan></text></g></g><g class="node default default flowchart-label" id="flowchart-LLM-311" data-node="true" data-id="LLM" transform="translate(1425.1328125, 61)"><rect class="basic label-container" style="" rx="0" ry="0" x="-88.875" y="-16" width="177.75" height="32"></rect><g class="label" style="" transform="translate(0, -8.5)"><rect></rect><text style=""><tspan xml:space="preserve" dy="1em" x="0" class="row">Generate with citations</tspan></text></g></g><g class="node default default flowchart-label" id="flowchart-CTX-310" data-node="true" data-id="CTX" transform="translate(1215.33984375, 61)"><rect class="basic label-container" style="" rx="0" ry="0" x="-70.91796875" y="-16" width="141.8359375" height="32"></rect><g class="label" style="" transform="translate(0, -8.5)"><rect></rect><text style=""><tspan xml:space="preserve" dy="1em" x="0" class="row">Assemble context</tspan></text></g></g><g class="node default default flowchart-label" id="flowchart-RK-309" data-node="true" data-id="RK" transform="translate(1060.6328125, 61)"><rect class="basic label-container" style="" rx="0" ry="0" x="-33.7890625" y="-16" width="67.578125" height="32"></rect><g class="label" style="" transform="translate(0, -8.5)"><rect></rect><text style=""><tspan xml:space="preserve" dy="1em" x="0" class="row">Rerank</tspan></text></g></g><g class="node default default flowchart-label" id="flowchart-RET-308" data-node="true" data-id="RET" transform="translate(917.27734375, 61)"><rect class="basic label-container" style="" rx="0" ry="0" x="-59.56640625" y="-16" width="119.1328125" height="32"></rect><g class="label" style="" transform="translate(0, -8.5)"><rect></rect><text style=""><tspan xml:space="preserve" dy="1em" x="0" class="row">Hybrid retrieve</tspan></text></g></g><g class="node default default flowchart-label" id="flowchart-RW-307" data-node="true" data-id="RW" transform="translate(743.28125, 51)"><rect class="basic label-container" style="" rx="0" ry="0" x="-34.66796875" y="-16" width="69.3359375" height="32"></rect><g class="label" style="" transform="translate(0, -8.5)"><rect></rect><text style=""><tspan xml:space="preserve" dy="1em" x="0" class="row">Rewrite</tspan></text></g></g><g class="node default default flowchart-label" id="flowchart-U-306" data-node="true" data-id="U" transform="translate(546.9921875, 51)"><rect class="basic label-container" style="" rx="0" ry="0" x="-56.859375" y="-16" width="113.71875" height="32"></rect><g class="label" style="" transform="translate(0, -8.5)"><rect></rect><text style=""><tspan xml:space="preserve" dy="1em" x="0" class="row">User question</tspan></text></g></g><g class="node default default flowchart-label" id="flowchart-E-303" data-node="true" data-id="E" transform="translate(546.9921875, 183)"><rect class="basic label-container" style="" rx="0" ry="0" x="-32.8515625" y="-16" width="65.703125" height="32"></rect><g class="label" style="" transform="translate(0, -8.5)"><rect></rect><text style=""><tspan xml:space="preserve" dy="1em" x="0" class="row">Embed</tspan></text></g></g><g class="node default default flowchart-label" id="flowchart-CH-302" data-node="true" data-id="CH" transform="translate(346.4765625, 183)"><rect class="basic label-container" style="" rx="0" ry="0" x="-68.65625" y="-16" width="137.3125" height="32"></rect><g class="label" style="" transform="translate(0, -8.5)"><rect></rect><text style=""><tspan xml:space="preserve" dy="1em" x="0" class="row">Chunk + headers</tspan></text></g></g><g class="node default default flowchart-label" id="flowchart-P-301" data-node="true" data-id="P" transform="translate(199.37109375, 183)"><rect class="basic label-container" style="" rx="0" ry="0" x="-28.44921875" y="-16" width="56.8984375" height="32"></rect><g class="label" style="" transform="translate(0, -8.5)"><rect></rect><text style=""><tspan xml:space="preserve" dy="1em" x="0" class="row">Parse</tspan></text></g></g><g class="node default default flowchart-label" id="flowchart-D-300" data-node="true" data-id="D" transform="translate(72.9609375, 183)"><rect class="basic label-container" style="" rx="0" ry="0" x="-47.9609375" y="-16" width="95.921875" height="32"></rect><g class="label" style="" transform="translate(0, -8.5)"><rect></rect><text style=""><tspan xml:space="preserve" dy="1em" x="0" class="row">Documents</tspan></text></g></g><g class="node default store flowchart-label" id="flowchart-IDX-305" data-node="true" data-id="IDX" transform="translate(743.28125, 183)"><path style="" d="M 0,12.690035083400012 a 64.4296875,12.690035083400012 0,0,0 128.859375 0 a 64.4296875,12.690035083400012 0,0,0 -128.859375 0 l 0,44.69003508340001 a 64.4296875,12.690035083400012 0,0,0 128.859375 0 l 0,-44.69003508340001" transform="translate(-64.4296875,-35.03505262510002)"></path><g class="label" style="" transform="translate(0, -8.5)"><rect></rect><text style=""><tspan xml:space="preserve" dy="1em" x="0" class="row">Versioned index</tspan></text></g></g></g></g></g></svg>