<?xml version="1.0" encoding="UTF-8"?>
<svg id="dgm24" width="100%" xmlns="http://www.w3.org/2000/svg" style="max-width: 378.19140625px;" viewBox="-7.5 -8 378.19140625 879.8078002929688" role="graphics-document document" aria-roledescription="flowchart-v2"><rect x="-100000" y="-100000" width="200000" height="200000" fill="#ffffff"/><style>#dgm24{font-family:Arial,"Liberation Sans",Helvetica,sans-serif;font-size:16px;fill:#000000;}#dgm24 .error-icon{fill:#552222;}#dgm24 .error-text{fill:#552222;stroke:#552222;}#dgm24 .edge-thickness-normal{stroke-width:2px;}#dgm24 .edge-thickness-thick{stroke-width:3.5px;}#dgm24 .edge-pattern-solid{stroke-dasharray:0;}#dgm24 .edge-pattern-dashed{stroke-dasharray:3;}#dgm24 .edge-pattern-dotted{stroke-dasharray:2;}#dgm24 .marker{fill:#666;stroke:#666;}#dgm24 .marker.cross{stroke:#666;}#dgm24 svg{font-family:Arial,"Liberation Sans",Helvetica,sans-serif;font-size:16px;}#dgm24 .label{font-family:Arial,"Liberation Sans",Helvetica,sans-serif;color:#000000;}#dgm24 .cluster-label text{fill:#333;}#dgm24 .cluster-label span,#dgm24 p{color:#333;}#dgm24 .label text,#dgm24 span,#dgm24 p{fill:#000000;color:#000000;}#dgm24 .node rect,#dgm24 .node circle,#dgm24 .node ellipse,#dgm24 .node polygon,#dgm24 .node path{fill:#eee;stroke:#999;stroke-width:1px;}#dgm24 .flowchart-label text{text-anchor:middle;}#dgm24 .node .katex path{fill:#000;stroke:#000;stroke-width:1px;}#dgm24 .node .label{text-align:center;}#dgm24 .node.clickable{cursor:pointer;}#dgm24 .arrowheadPath{fill:#333333;}#dgm24 .edgePath .path{stroke:#666;stroke-width:2.0px;}#dgm24 .flowchart-link{stroke:#666;fill:none;}#dgm24 .edgeLabel{background-color:white;text-align:center;}#dgm24 .edgeLabel rect{opacity:0.5;background-color:white;fill:white;}#dgm24 .labelBkg{background-color:rgba(255, 255, 255, 0.5);}#dgm24 .cluster rect{fill:hsl(0, 0%, 98.9215686275%);stroke:#707070;stroke-width:1px;}#dgm24 .cluster text{fill:#333;}#dgm24 .cluster span,#dgm24 p{color:#333;}#dgm24 div.mermaidTooltip{position:absolute;text-align:center;max-width:200px;padding:2px;font-family:Arial,"Liberation Sans",Helvetica,sans-serif;font-size:12px;background:hsl(-160, 0%, 93.3333333333%);border:1px solid #707070;border-radius:2px;pointer-events:none;z-index:100;}#dgm24 .flowchartTitleText{text-anchor:middle;font-size:18px;fill:#000000;}#dgm24 :root{--mermaid-font-family:Arial,"Liberation Sans",Helvetica,sans-serif;}#dgm24 .store rect{fill:rgb(230, 238, 248)!important;stroke:rgb(59, 110, 165)!important;color:rgb(17, 17, 17)!important;}#dgm24 .store polygon{fill:rgb(230, 238, 248)!important;stroke:rgb(59, 110, 165)!important;color:rgb(17, 17, 17)!important;}#dgm24 .store ellipse{fill:rgb(230, 238, 248)!important;stroke:rgb(59, 110, 165)!important;color:rgb(17, 17, 17)!important;}#dgm24 .store circle{fill:rgb(230, 238, 248)!important;stroke:rgb(59, 110, 165)!important;color:rgb(17, 17, 17)!important;}#dgm24 .store path{fill:rgb(230, 238, 248)!important;stroke:rgb(59, 110, 165)!important;color:rgb(17, 17, 17)!important;}#dgm24 .store tspan{fill:rgb(17, 17, 17)!important;}</style><g><marker id="dgm24_flowchart-pointEnd" class="marker flowchart" viewBox="0 0 10 10" refX="6" refY="5" markerUnits="userSpaceOnUse" markerWidth="12" markerHeight="12" orient="auto"><path d="M 0 0 L 10 5 L 0 10 z" class="arrowMarkerPath" style="stroke-width: 1; stroke-dasharray: 1, 0;"></path></marker><marker id="dgm24_flowchart-pointStart" class="marker flowchart" viewBox="0 0 10 10" refX="4.5" refY="5" markerUnits="userSpaceOnUse" markerWidth="12" markerHeight="12" orient="auto"><path d="M 0 5 L 10 10 L 10 0 z" class="arrowMarkerPath" style="stroke-width: 1; stroke-dasharray: 1, 0;"></path></marker><marker id="dgm24_flowchart-circleEnd" class="marker flowchart" viewBox="0 0 10 10" refX="11" refY="5" markerUnits="userSpaceOnUse" markerWidth="11" markerHeight="11" orient="auto"><circle cx="5" cy="5" r="5" class="arrowMarkerPath" style="stroke-width: 1; stroke-dasharray: 1, 0;"></circle></marker><marker id="dgm24_flowchart-circleStart" class="marker flowchart" viewBox="0 0 10 10" refX="-1" refY="5" markerUnits="userSpaceOnUse" markerWidth="11" markerHeight="11" orient="auto"><circle cx="5" cy="5" r="5" class="arrowMarkerPath" style="stroke-width: 1; stroke-dasharray: 1, 0;"></circle></marker><marker id="dgm24_flowchart-crossEnd" class="marker cross flowchart" viewBox="0 0 11 11" refX="12" refY="5.2" markerUnits="userSpaceOnUse" markerWidth="11" markerHeight="11" orient="auto"><path d="M 1,1 l 9,9 M 10,1 l -9,9" class="arrowMarkerPath" style="stroke-width: 2; stroke-dasharray: 1, 0;"></path></marker><marker id="dgm24_flowchart-crossStart" class="marker cross flowchart" viewBox="0 0 11 11" refX="-1" refY="5.2" markerUnits="userSpaceOnUse" markerWidth="11" markerHeight="11" orient="auto"><path d="M 1,1 l 9,9 M 10,1 l -9,9" class="arrowMarkerPath" style="stroke-width: 2; stroke-dasharray: 1, 0;"></path></marker><g class="root"><g class="clusters"></g><g class="edgePaths"></g><g class="edgeLabels"></g><g class="nodes"><g class="root" transform="translate(42.615234375, -8)"><g class="clusters"><g class="cluster default flowchart-label" id="LB"><rect style="" rx="0" ry="0" x="8" y="8" width="261.9609375" height="321.17024993896484"></rect><g class="cluster-label" transform="translate(138.98046875, 8)"><text style=""><tspan xml:space="preserve" dy="1em" x="0" class="row">Leaky bucket - smooths output</tspan></text></g></g></g><g class="edgePaths"><path d="M131.431,65L125.427,70.583C119.423,76.167,107.414,87.333,101.41,97.617C95.406,107.9,95.406,117.3,95.406,122L95.406,126.7" id="L-IN2-QQ-0" class="edge-thickness-normal edge-pattern-solid flowchart-link LS-IN2 LE-QQ" style="fill:none;" marker-end="url(#dgm24_flowchart-pointEnd)"></path><path d="M95.406,205.17L95.406,210.754C95.406,216.337,95.406,227.504,95.406,237.787C95.406,248.07,95.406,257.47,95.406,262.17L95.406,266.87" id="L-QQ-OK2-0" class="edge-thickness-normal edge-pattern-solid flowchart-link LS-QQ LE-OK2" style="fill:none;" marker-end="url(#dgm24_flowchart-pointEnd)"></path><path d="M165.843,65L171.847,70.583C177.851,76.167,189.859,87.333,195.863,101.048C201.867,114.762,201.867,131.023,201.867,139.154L201.867,147.285" id="L-IN2-RJ2-0" class="edge-thickness-normal edge-pattern-solid flowchart-link LS-IN2 LE-RJ2" style="fill:none;" marker-end="url(#dgm24_flowchart-pointEnd)"></path></g><g class="edgeLabels"><g class="edgeLabel"><g class="label" transform="translate(0, 0)"><rect rx="0" ry="0" width="0" height="0"></rect><text style=""><tspan xml:space="preserve" dy="1em" x="0" class="row"></tspan></text></g></g><g class="edgeLabel" transform="translate(95.40625, 238.67024993896484)"><g class="label" transform="translate(-64.37109375, -8.5)"><rect rx="0" ry="0" width="128.62403869628906" height="17.00020980834961"></rect><text style=""><tspan xml:space="preserve" dy="1em" x="0" class="row">drain at constant r</tspan></text></g></g><g class="edgeLabel" transform="translate(201.8671875, 98.5)"><g class="label" transform="translate(-34.6953125, -8.5)"><rect rx="0" ry="0" width="69.32898712158203" height="17.00020980834961"></rect><text style=""><tspan xml:space="preserve" dy="1em" x="0" class="row">queue full</tspan></text></g></g></g><g class="nodes"><g class="node default store flowchart-label" id="flowchart-QQ-474" data-node="true" data-id="QQ" transform="translate(95.40625, 168.58512496948242)"><path style="" d="M 0,8.390083880076405 a 31.5703125,8.390083880076405 0,0,0 63.140625 0 a 31.5703125,8.390083880076405 0,0,0 -63.140625 0 l 0,56.3900838800764 a 31.5703125,8.390083880076405 0,0,0 63.140625 0 l 0,-56.3900838800764" transform="translate(-31.5703125,-36.585125820114605)"></path><g class="label" style="" transform="translate(0, -16.5)"><rect></rect><text style=""><tspan xml:space="preserve" dy="1em" x="0" class="row">Queue</tspan><tspan xml:space="preserve" dy="1em" x="0" class="row">size Q</tspan></text></g></g><g class="node default default flowchart-label" id="flowchart-IN2-473" data-node="true" data-id="IN2" transform="translate(148.63671875, 49)"><rect class="basic label-container" style="" rx="0" ry="0" x="-41.296875" y="-16" width="82.59375" height="32"></rect><g class="label" style="" transform="translate(0, -8.5)"><rect></rect><text style=""><tspan xml:space="preserve" dy="1em" x="0" class="row">Requests</tspan></text></g></g><g class="node default default flowchart-label" id="flowchart-OK2-476" data-node="true" data-id="OK2" transform="translate(95.40625, 288.17024993896484)"><rect class="basic label-container" style="" rx="0" ry="0" x="-52.40625" y="-16" width="104.8125" height="32"></rect><g class="label" style="" transform="translate(0, -8.5)"><rect></rect><text style=""><tspan xml:space="preserve" dy="1em" x="0" class="row">Downstream</tspan></text></g></g><g class="node default default flowchart-label" id="flowchart-RJ2-478" data-node="true" data-id="RJ2" transform="translate(201.8671875, 168.58512496948242)"><rect class="basic label-container" style="" rx="0" ry="0" x="-24.890625" y="-16" width="49.78125" height="32"></rect><g class="label" style="" transform="translate(0, -8.5)"><rect></rect><text style=""><tspan xml:space="preserve" dy="1em" x="0" class="row">Drop</tspan></text></g></g></g></g><g class="root" transform="translate(-7.5, 363.1702575683594)"><g class="clusters"><g class="cluster default flowchart-label" id="TB"><rect style="" rx="0" ry="0" x="8" y="8" width="362.19140625" height="492.6375503540039"></rect><g class="cluster-label" transform="translate(189.095703125, 8)"><text style=""><tspan xml:space="preserve" dy="1em" x="0" class="row">Token bucket - allows bursts</tspan></text></g></g></g><g class="edgePaths"><path d="M270.977,65L270.977,69.167C270.977,73.333,270.977,81.667,270.977,89.117C270.977,96.567,270.977,103.133,270.977,106.417L270.977,109.7" id="L-R1-BK-0" class="edge-thickness-normal edge-pattern-solid flowchart-link LS-R1 LE-BK" style="fill:none;" marker-end="url(#dgm24_flowchart-pointEnd)"></path><path d="M98.742,170.577L98.742,178.673C98.742,186.769,98.742,202.961,108.719,220.405C118.696,237.848,138.65,256.543,148.627,265.891L158.603,275.238" id="L-IN1-CK-0" class="edge-thickness-normal edge-pattern-solid flowchart-link LS-IN1 LE-CK" style="fill:none;" marker-end="url(#dgm24_flowchart-pointEnd)"></path><path d="M270.977,194.153L270.977,198.32C270.977,202.487,270.977,210.82,264.12,223.521C257.264,236.223,243.552,253.292,236.696,261.827L229.84,270.362" id="L-BK-CK-0" class="edge-thickness-normal edge-pattern-solid flowchart-link LS-BK LE-CK" style="fill:none;" marker-end="url(#dgm24_flowchart-pointEnd)"></path><path d="M166.595,347.052L157.693,357.567C148.792,368.081,130.99,389.109,122.089,404.323C113.188,419.538,113.188,428.938,113.188,433.638L113.188,438.338" id="L-CK-OK1-0" class="edge-thickness-normal edge-pattern-solid flowchart-link LS-CK LE-OK1" style="fill:none;" marker-end="url(#dgm24_flowchart-pointEnd)"></path><path d="M226.765,347.052L235.499,357.567C244.234,368.081,261.703,389.109,270.437,404.323C279.172,419.538,279.172,428.938,279.172,433.638L279.172,438.338" id="L-CK-RJ1-0" class="edge-thickness-normal edge-pattern-solid flowchart-link LS-CK LE-RJ1" style="fill:none;" marker-end="url(#dgm24_flowchart-pointEnd)"></path></g><g class="edgeLabels"><g class="edgeLabel"><g class="label" transform="translate(0, 0)"><rect rx="0" ry="0" width="0" height="0"></rect><text style=""><tspan xml:space="preserve" dy="1em" x="0" class="row"></tspan></text></g></g><g class="edgeLabel"><g class="label" transform="translate(0, 0)"><rect rx="0" ry="0" width="0" height="0"></rect><text style=""><tspan xml:space="preserve" dy="1em" x="0" class="row"></tspan></text></g></g><g class="edgeLabel"><g class="label" transform="translate(0, 0)"><rect rx="0" ry="0" width="0" height="0"></rect><text style=""><tspan xml:space="preserve" dy="1em" x="0" class="row"></tspan></text></g></g><g class="edgeLabel" transform="translate(113.1875, 410.1375503540039)"><g class="label" transform="translate(-12.453125, -8.5)"><rect rx="0" ry="0" width="24.882251739501953" height="17.00020980834961"></rect><text style=""><tspan xml:space="preserve" dy="1em" x="0" class="row">yes</tspan></text></g></g><g class="edgeLabel" transform="translate(279.171875, 410.1375503540039)"><g class="label" transform="translate(-8.94921875, -8.5)"><rect rx="0" ry="0" width="17.889976501464844" height="17.00020980834961"></rect><text style=""><tspan xml:space="preserve" dy="1em" x="0" class="row">no</tspan></text></g></g></g><g class="nodes"><g class="node default store flowchart-label" id="flowchart-BK-464" data-node="true" data-id="BK" transform="translate(270.9765625, 154.57658767700195)"><path style="" d="M 0,10.384390529085062 a 44.40625,10.384390529085062 0,0,0 88.8125 0 a 44.40625,10.384390529085062 0,0,0 -88.8125 0 l 0,58.38439052908506 a 44.40625,10.384390529085062 0,0,0 88.8125 0 l 0,-58.38439052908506" transform="translate(-44.40625,-39.57658579362759)"></path><g class="label" style="" transform="translate(0, -16.5)"><rect></rect><text style=""><tspan xml:space="preserve" dy="1em" x="0" class="row">Bucket</tspan><tspan xml:space="preserve" dy="1em" x="0" class="row">capacity B</tspan></text></g></g><g class="node default default flowchart-label" id="flowchart-R1-463" data-node="true" data-id="R1" transform="translate(270.9765625, 49)"><rect class="basic label-container" style="" rx="0" ry="0" x="-62.1875" y="-16" width="124.375" height="32"></rect><g class="label" style="" transform="translate(0, -8.5)"><rect></rect><text style=""><tspan xml:space="preserve" dy="1em" x="0" class="row">Refill r tokens/s</tspan></text></g></g><g class="node default default flowchart-label" id="flowchart-IN1-465" data-node="true" data-id="IN1" transform="translate(98.7421875, 154.57658767700195)"><rect class="basic label-container" style="" rx="0" ry="0" x="-41.296875" y="-16" width="82.59375" height="32"></rect><g class="label" style="" transform="translate(0, -8.5)"><rect></rect><text style=""><tspan xml:space="preserve" dy="1em" x="0" class="row">Requests</tspan></text></g></g><g class="node default default flowchart-label" id="flowchart-CK-466" data-node="true" data-id="CK" transform="translate(196.1796875, 310.3953628540039)"><polygon points="66.2421875,0 132.484375,-66.2421875 66.2421875,-132.484375 0,-66.2421875" class="label-container" transform="translate(-66.2421875,66.2421875)" style=""></polygon><g class="label" style="" transform="translate(0, -8.5)"><rect></rect><text style=""><tspan xml:space="preserve" dy="1em" x="0" class="row">Tokens left?</tspan></text></g></g><g class="node default default flowchart-label" id="flowchart-OK1-470" data-node="true" data-id="OK1" transform="translate(113.1875, 459.6375503540039)"><rect class="basic label-container" style="" rx="0" ry="0" x="-70.1875" y="-16" width="140.375" height="32"></rect><g class="label" style="" transform="translate(0, -8.5)"><rect></rect><text style=""><tspan xml:space="preserve" dy="1em" x="0" class="row">Pass immediately</tspan></text></g></g><g class="node default default flowchart-label" id="flowchart-RJ1-472" data-node="true" data-id="RJ1" transform="translate(279.171875, 459.6375503540039)"><rect class="basic label-container" style="" rx="0" ry="0" x="-45.796875" y="-16" width="91.59375" height="32"></rect><g class="label" style="" transform="translate(0, -8.5)"><rect></rect><text style=""><tspan xml:space="preserve" dy="1em" x="0" class="row">Reject 429</tspan></text></g></g></g></g></g></g></g></svg>