<?xml version="1.0" encoding="UTF-8"?>
<svg id="dgm32" width="100%" xmlns="http://www.w3.org/2000/svg" style="max-width: 399.34765625px;" viewBox="-7.5 -8 399.34765625 804.184814453125" role="graphics-document document" aria-roledescription="flowchart-v2"><rect x="-100000" y="-100000" width="200000" height="200000" fill="#ffffff"/><style>#dgm32{font-family:Arial,"Liberation Sans",Helvetica,sans-serif;font-size:16px;fill:#000000;}#dgm32 .error-icon{fill:#552222;}#dgm32 .error-text{fill:#552222;stroke:#552222;}#dgm32 .edge-thickness-normal{stroke-width:2px;}#dgm32 .edge-thickness-thick{stroke-width:3.5px;}#dgm32 .edge-pattern-solid{stroke-dasharray:0;}#dgm32 .edge-pattern-dashed{stroke-dasharray:3;}#dgm32 .edge-pattern-dotted{stroke-dasharray:2;}#dgm32 .marker{fill:#666;stroke:#666;}#dgm32 .marker.cross{stroke:#666;}#dgm32 svg{font-family:Arial,"Liberation Sans",Helvetica,sans-serif;font-size:16px;}#dgm32 .label{font-family:Arial,"Liberation Sans",Helvetica,sans-serif;color:#000000;}#dgm32 .cluster-label text{fill:#333;}#dgm32 .cluster-label span,#dgm32 p{color:#333;}#dgm32 .label text,#dgm32 span,#dgm32 p{fill:#000000;color:#000000;}#dgm32 .node rect,#dgm32 .node circle,#dgm32 .node ellipse,#dgm32 .node polygon,#dgm32 .node path{fill:#eee;stroke:#999;stroke-width:1px;}#dgm32 .flowchart-label text{text-anchor:middle;}#dgm32 .node .katex path{fill:#000;stroke:#000;stroke-width:1px;}#dgm32 .node .label{text-align:center;}#dgm32 .node.clickable{cursor:pointer;}#dgm32 .arrowheadPath{fill:#333333;}#dgm32 .edgePath .path{stroke:#666;stroke-width:2.0px;}#dgm32 .flowchart-link{stroke:#666;fill:none;}#dgm32 .edgeLabel{background-color:white;text-align:center;}#dgm32 .edgeLabel rect{opacity:0.5;background-color:white;fill:white;}#dgm32 .labelBkg{background-color:rgba(255, 255, 255, 0.5);}#dgm32 .cluster rect{fill:hsl(0, 0%, 98.9215686275%);stroke:#707070;stroke-width:1px;}#dgm32 .cluster text{fill:#333;}#dgm32 .cluster span,#dgm32 p{color:#333;}#dgm32 div.mermaidTooltip{position:absolute;text-align:center;max-width:200px;padding:2px;font-family:Arial,"Liberation Sans",Helvetica,sans-serif;font-size:12px;background:hsl(-160, 0%, 93.3333333333%);border:1px solid #707070;border-radius:2px;pointer-events:none;z-index:100;}#dgm32 .flowchartTitleText{text-anchor:middle;font-size:18px;fill:#000000;}#dgm32 :root{--mermaid-font-family:Arial,"Liberation Sans",Helvetica,sans-serif;}#dgm32 .store rect{fill:rgb(230, 238, 248)!important;stroke:rgb(59, 110, 165)!important;color:rgb(17, 17, 17)!important;}#dgm32 .store polygon{fill:rgb(230, 238, 248)!important;stroke:rgb(59, 110, 165)!important;color:rgb(17, 17, 17)!important;}#dgm32 .store ellipse{fill:rgb(230, 238, 248)!important;stroke:rgb(59, 110, 165)!important;color:rgb(17, 17, 17)!important;}#dgm32 .store circle{fill:rgb(230, 238, 248)!important;stroke:rgb(59, 110, 165)!important;color:rgb(17, 17, 17)!important;}#dgm32 .store path{fill:rgb(230, 238, 248)!important;stroke:rgb(59, 110, 165)!important;color:rgb(17, 17, 17)!important;}#dgm32 .store tspan{fill:rgb(17, 17, 17)!important;}#dgm32 .warn rect{fill:rgb(253, 240, 213)!important;stroke:rgb(201, 138, 18)!important;color:rgb(17, 17, 17)!important;}#dgm32 .warn polygon{fill:rgb(253, 240, 213)!important;stroke:rgb(201, 138, 18)!important;color:rgb(17, 17, 17)!important;}#dgm32 .warn ellipse{fill:rgb(253, 240, 213)!important;stroke:rgb(201, 138, 18)!important;color:rgb(17, 17, 17)!important;}#dgm32 .warn circle{fill:rgb(253, 240, 213)!important;stroke:rgb(201, 138, 18)!important;color:rgb(17, 17, 17)!important;}#dgm32 .warn path{fill:rgb(253, 240, 213)!important;stroke:rgb(201, 138, 18)!important;color:rgb(17, 17, 17)!important;}#dgm32 .warn tspan{fill:rgb(17, 17, 17)!important;}</style><g><marker id="dgm32_flowchart-pointEnd" class="marker flowchart" viewBox="0 0 10 10" refX="6" refY="5" markerUnits="userSpaceOnUse" markerWidth="12" markerHeight="12" orient="auto"><path d="M 0 0 L 10 5 L 0 10 z" class="arrowMarkerPath" style="stroke-width: 1; stroke-dasharray: 1, 0;"></path></marker><marker id="dgm32_flowchart-pointStart" class="marker flowchart" viewBox="0 0 10 10" refX="4.5" refY="5" markerUnits="userSpaceOnUse" markerWidth="12" markerHeight="12" orient="auto"><path d="M 0 5 L 10 10 L 10 0 z" class="arrowMarkerPath" style="stroke-width: 1; stroke-dasharray: 1, 0;"></path></marker><marker id="dgm32_flowchart-circleEnd" class="marker flowchart" viewBox="0 0 10 10" refX="11" refY="5" markerUnits="userSpaceOnUse" markerWidth="11" markerHeight="11" orient="auto"><circle cx="5" cy="5" r="5" class="arrowMarkerPath" style="stroke-width: 1; stroke-dasharray: 1, 0;"></circle></marker><marker id="dgm32_flowchart-circleStart" class="marker flowchart" viewBox="0 0 10 10" refX="-1" refY="5" markerUnits="userSpaceOnUse" markerWidth="11" markerHeight="11" orient="auto"><circle cx="5" cy="5" r="5" class="arrowMarkerPath" style="stroke-width: 1; stroke-dasharray: 1, 0;"></circle></marker><marker id="dgm32_flowchart-crossEnd" class="marker cross flowchart" viewBox="0 0 11 11" refX="12" refY="5.2" markerUnits="userSpaceOnUse" markerWidth="11" markerHeight="11" orient="auto"><path d="M 1,1 l 9,9 M 10,1 l -9,9" class="arrowMarkerPath" style="stroke-width: 2; stroke-dasharray: 1, 0;"></path></marker><marker id="dgm32_flowchart-crossStart" class="marker cross flowchart" viewBox="0 0 11 11" refX="-1" refY="5.2" markerUnits="userSpaceOnUse" markerWidth="11" markerHeight="11" orient="auto"><path d="M 1,1 l 9,9 M 10,1 l -9,9" class="arrowMarkerPath" style="stroke-width: 2; stroke-dasharray: 1, 0;"></path></marker><g class="root"><g class="clusters"></g><g class="edgePaths"></g><g class="edgeLabels"></g><g class="nodes"><g class="root" transform="translate(-7.5, -8)"><g class="clusters"><g class="cluster default flowchart-label" id="MP"><rect style="" rx="0" ry="0" x="8" y="8" width="383.34765625" height="421.6941947937012"></rect><g class="cluster-label" transform="translate(199.673828125, 8)"><text style=""><tspan xml:space="preserve" dy="1em" x="0" class="row">Multi-primary</tspan></text></g></g></g><g class="edgePaths"><path d="M119.699,65L119.699,69.167C119.699,73.333,119.699,81.667,119.699,89.117C119.699,96.567,119.699,103.133,119.699,106.417L119.699,109.7" id="L-WA-PA-0" class="edge-thickness-normal edge-pattern-solid flowchart-link LS-WA LE-PA" style="fill:none;" marker-end="url(#dgm32_flowchart-pointEnd)"></path><path d="M285.371,162.144L285.371,170.251C285.371,178.358,285.371,194.573,282.038,207.752C278.706,220.931,272.041,231.075,268.708,236.148L265.375,241.22" id="L-WB-PB-0" class="edge-thickness-normal edge-pattern-solid flowchart-link LS-WB LE-PB" style="fill:none;" marker-end="url(#dgm32_flowchart-pointEnd)"></path><path d="M143.926,180.343L147.262,185.417C150.598,190.491,157.269,200.639,166.631,211.549C175.993,222.458,188.046,234.13,194.072,239.965L200.098,245.801" id="L-PA-PB-0" class="edge-thickness-normal edge-pattern-solid flowchart-link LS-PA LE-PB" style="fill:none;" marker-start="url(#dgm32_flowchart-pointStart)" marker-end="url(#dgm32_flowchart-pointEnd)"></path><path d="M98.384,175.914L94.563,181.727C90.742,187.539,83.1,199.163,79.278,215.759C75.457,232.355,75.457,253.923,75.457,274.074C75.457,294.225,75.457,312.96,84.964,326.163C94.47,339.366,113.483,347.039,122.99,350.875L132.496,354.711" id="L-PA-CR-0" class="edge-thickness-normal edge-pattern-solid flowchart-link LS-PA LE-CR" style="fill:none;" marker-end="url(#dgm32_flowchart-pointEnd)"></path><path d="M241.129,306.694L241.129,310.861C241.129,315.028,241.129,323.361,237.959,331.039C234.789,338.716,228.448,345.738,225.278,349.249L222.108,352.76" id="L-PB-CR-0" class="edge-thickness-normal edge-pattern-solid flowchart-link LS-PB LE-CR" style="fill:none;" marker-end="url(#dgm32_flowchart-pointEnd)"></path></g><g class="edgeLabels"><g class="edgeLabel"><g class="label" transform="translate(0, 0)"><rect rx="0" ry="0" width="0" height="0"></rect><text style=""><tspan xml:space="preserve" dy="1em" x="0" class="row"></tspan></text></g></g><g class="edgeLabel"><g class="label" transform="translate(0, 0)"><rect rx="0" ry="0" width="0" height="0"></rect><text style=""><tspan xml:space="preserve" dy="1em" x="0" class="row"></tspan></text></g></g><g class="edgeLabel" transform="translate(163.94140625, 210.7872772216797)"><g class="label" transform="translate(-68.484375, -8.5)"><rect rx="0" ry="0" width="136.83731079101562" height="17.000272750854492"></rect><text style=""><tspan xml:space="preserve" dy="1em" x="0" class="row">replicate both ways</tspan></text></g></g><g class="edgeLabel"><g class="label" transform="translate(0, 0)"><rect rx="0" ry="0" width="0" height="0"></rect><text style=""><tspan xml:space="preserve" dy="1em" x="0" class="row"></tspan></text></g></g><g class="edgeLabel"><g class="label" transform="translate(0, 0)"><rect rx="0" ry="0" width="0" height="0"></rect><text style=""><tspan xml:space="preserve" dy="1em" x="0" class="row"></tspan></text></g></g></g><g class="nodes"><g class="node default store flowchart-label" id="flowchart-PA-610" data-node="true" data-id="PA" transform="translate(119.69921875, 146.14363861083984)"><path style="" d="M 0,10.095759743647069 a 42.3359375,10.095759743647069 0,0,0 84.671875 0 a 42.3359375,10.095759743647069 0,0,0 -84.671875 0 l 0,42.095759743647065 a 42.3359375,10.095759743647069 0,0,0 84.671875 0 l 0,-42.095759743647065" transform="translate(-42.3359375,-31.1436396154706)"></path><g class="label" style="" transform="translate(0, -8.5)"><rect></rect><text style=""><tspan xml:space="preserve" dy="1em" x="0" class="row">Primary A</tspan></text></g></g><g class="node default default flowchart-label" id="flowchart-WA-609" data-node="true" data-id="WA" transform="translate(119.69921875, 49)"><rect class="basic label-container" style="" rx="0" ry="0" x="-61.76171875" y="-16" width="123.5234375" height="32"></rect><g class="label" style="" transform="translate(0, -8.5)"><rect></rect><text style=""><tspan xml:space="preserve" dy="1em" x="0" class="row">Writes region A</tspan></text></g></g><g class="node default default flowchart-label" id="flowchart-WB-611" data-node="true" data-id="WB" transform="translate(285.37109375, 146.14363861083984)"><rect class="basic label-container" style="" rx="0" ry="0" x="-62.0390625" y="-16" width="124.078125" height="32"></rect><g class="label" style="" transform="translate(0, -8.5)"><rect></rect><text style=""><tspan xml:space="preserve" dy="1em" x="0" class="row">Writes region B</tspan></text></g></g><g class="node default store flowchart-label" id="flowchart-PB-612" data-node="true" data-id="PB" transform="translate(241.12890625, 275.49073600769043)"><path style="" d="M 0,10.135637309550352 a 42.6171875,10.135637309550352 0,0,0 85.234375 0 a 42.6171875,10.135637309550352 0,0,0 -85.234375 0 l 0,42.135637309550354 a 42.6171875,10.135637309550352 0,0,0 85.234375 0 l 0,-42.135637309550354" transform="translate(-42.6171875,-31.203455964325528)"></path><g class="label" style="" transform="translate(0, -8.5)"><rect></rect><text style=""><tspan xml:space="preserve" dy="1em" x="0" class="row">Primary B</tspan></text></g></g><g class="node default warn flowchart-label" id="flowchart-CR-616" data-node="true" data-id="CR" transform="translate(196.88671875, 380.6941947937012)"><rect class="basic label-container" style="" rx="0" ry="0" x="-79.9140625" y="-24" width="159.828125" height="48"></rect><g class="label" style="" transform="translate(0, -16.5)"><rect></rect><text style=""><tspan xml:space="preserve" dy="1em" x="0" class="row">Conflict resolution</tspan><tspan xml:space="preserve" dy="1em" x="0" class="row">LWW, merge, CRDT</tspan></text></g></g></g></g><g class="root" transform="translate(29.751953125, 463.6941833496094)"><g class="clusters"><g class="cluster default flowchart-label" id="SP"><rect style="" rx="0" ry="0" x="8" y="8" width="308.84375" height="316.4906311035156"></rect><g class="cluster-label" transform="translate(162.421875, 8)"><text style=""><tspan xml:space="preserve" dy="1em" x="0" class="row">Single primary</tspan></text></g></g></g><g class="edgePaths"><path d="M121.934,65L121.934,69.167C121.934,73.333,121.934,81.667,121.934,89.117C121.934,96.567,121.934,103.133,121.934,106.417L121.934,109.7" id="L-W1-P-0" class="edge-thickness-normal edge-pattern-solid flowchart-link LS-W1 LE-P" style="fill:none;" marker-end="url(#dgm32_flowchart-pointEnd)"></path><path d="M101.128,172.197L97.186,178.072C93.245,183.948,85.363,195.699,84.071,206.551C82.779,217.402,88.078,227.354,90.728,232.331L93.377,237.307" id="L-P-R1-0" class="edge-thickness-normal edge-pattern-solid flowchart-link LS-P LE-R1" style="fill:none;" marker-end="url(#dgm32_flowchart-pointEnd)"></path><path d="M153.686,168.773L159.7,175.219C165.715,181.666,177.744,194.558,188.337,206.476C198.929,218.395,208.085,229.339,212.663,234.812L217.241,240.284" id="L-P-R2-0" class="edge-thickness-normal edge-pattern-solid flowchart-link LS-P LE-R2" style="fill:none;" marker-end="url(#dgm32_flowchart-pointEnd)"></path><path d="M220.377,160.475L211.943,168.304C203.509,176.133,186.641,191.792,173.629,205.093C160.617,218.395,151.461,229.339,146.883,234.812L142.306,240.284" id="L-RD-R1-0" class="edge-thickness-normal edge-pattern-solid flowchart-link LS-RD LE-R1" style="fill:none;" marker-end="url(#dgm32_flowchart-pointEnd)"></path><path d="M246.408,160.475L250.711,168.304C255.015,176.133,263.622,191.792,266.054,204.466C268.486,217.139,264.744,226.829,262.872,231.674L261.001,236.518" id="L-RD-R2-0" class="edge-thickness-normal edge-pattern-solid flowchart-link LS-RD LE-R2" style="fill:none;" marker-end="url(#dgm32_flowchart-pointEnd)"></path></g><g class="edgeLabels"><g class="edgeLabel"><g class="label" transform="translate(0, 0)"><rect rx="0" ry="0" width="0" height="0"></rect><text style=""><tspan xml:space="preserve" dy="1em" x="0" class="row"></tspan></text></g></g><g class="edgeLabel" transform="translate(77.48046875, 207.4500274658203)"><g class="label" transform="translate(-48.90625, -8.5)"><rect rx="0" ry="0" width="97.72640991210938" height="17.000272750854492"></rect><text style=""><tspan xml:space="preserve" dy="1em" x="0" class="row">async or sync</tspan></text></g></g><g class="edgeLabel"><g class="label" transform="translate(0, 0)"><rect rx="0" ry="0" width="0" height="0"></rect><text style=""><tspan xml:space="preserve" dy="1em" x="0" class="row"></tspan></text></g></g><g class="edgeLabel"><g class="label" transform="translate(0, 0)"><rect rx="0" ry="0" width="0" height="0"></rect><text style=""><tspan xml:space="preserve" dy="1em" x="0" class="row"></tspan></text></g></g><g class="edgeLabel"><g class="label" transform="translate(0, 0)"><rect rx="0" ry="0" width="0" height="0"></rect><text style=""><tspan xml:space="preserve" dy="1em" x="0" class="row"></tspan></text></g></g></g><g class="nodes"><g class="node default store flowchart-label" id="flowchart-P-600" data-node="true" data-id="P" transform="translate(121.93359375, 144.47501373291016)"><path style="" d="M 0,8.983342676383439 a 35.0546875,8.983342676383439 0,0,0 70.109375 0 a 35.0546875,8.983342676383439 0,0,0 -70.109375 0 l 0,40.98334267638344 a 35.0546875,8.983342676383439 0,0,0 70.109375 0 l 0,-40.98334267638344" transform="translate(-35.0546875,-29.47501401457516)"></path><g class="label" style="" transform="translate(0, -8.5)"><rect></rect><text style=""><tspan xml:space="preserve" dy="1em" x="0" class="row">Primary</tspan></text></g></g><g class="node default default flowchart-label" id="flowchart-W1-599" data-node="true" data-id="W1" transform="translate(121.93359375, 49)"><rect class="basic label-container" style="" rx="0" ry="0" x="-30.0234375" y="-16" width="60.046875" height="32"></rect><g class="label" style="" transform="translate(0, -8.5)"><rect></rect><text style=""><tspan xml:space="preserve" dy="1em" x="0" class="row">Writes</tspan></text></g></g><g class="node default store flowchart-label" id="flowchart-R1-602" data-node="true" data-id="R1" transform="translate(111.93359375, 270.22032928466797)"><path style="" d="M 0,8.84686831159391 a 34.23046875,8.84686831159391 0,0,0 68.4609375 0 a 34.23046875,8.84686831159391 0,0,0 -68.4609375 0 l 0,40.84686831159391 a 34.23046875,8.84686831159391 0,0,0 68.4609375 0 l 0,-40.84686831159391" transform="translate(-34.23046875,-29.270302467390863)"></path><g class="label" style="" transform="translate(0, -8.5)"><rect></rect><text style=""><tspan xml:space="preserve" dy="1em" x="0" class="row">Replica</tspan></text></g></g><g class="node default store flowchart-label" id="flowchart-R2-604" data-node="true" data-id="R2" transform="translate(247.61328125, 270.22032928466797)"><path style="" d="M 0,8.84686831159391 a 34.23046875,8.84686831159391 0,0,0 68.4609375 0 a 34.23046875,8.84686831159391 0,0,0 -68.4609375 0 l 0,40.84686831159391 a 34.23046875,8.84686831159391 0,0,0 68.4609375 0 l 0,-40.84686831159391" transform="translate(-34.23046875,-29.270302467390863)"></path><g class="label" style="" transform="translate(0, -8.5)"><rect></rect><text style=""><tspan xml:space="preserve" dy="1em" x="0" class="row">Replica</tspan></text></g></g><g class="node default default flowchart-label" id="flowchart-RD-605" data-node="true" data-id="RD" transform="translate(237.61328125, 144.47501373291016)"><rect class="basic label-container" style="" rx="0" ry="0" x="-30.625" y="-16" width="61.25" height="32"></rect><g class="label" style="" transform="translate(0, -8.5)"><rect></rect><text style=""><tspan xml:space="preserve" dy="1em" x="0" class="row">Reads</tspan></text></g></g></g></g></g></g></g></svg>