<?xml version="1.0" encoding="UTF-8"?>
<svg id="dgm29" width="100%" xmlns="http://www.w3.org/2000/svg" style="max-width: 780.953125px;" viewBox="-8 -8 780.953125 385.467041015625" role="graphics-document document" aria-roledescription="flowchart-v2"><rect x="-100000" y="-100000" width="200000" height="200000" fill="#ffffff"/><style>#dgm29{font-family:Arial,"Liberation Sans",Helvetica,sans-serif;font-size:16px;fill:#000000;}#dgm29 .error-icon{fill:#552222;}#dgm29 .error-text{fill:#552222;stroke:#552222;}#dgm29 .edge-thickness-normal{stroke-width:2px;}#dgm29 .edge-thickness-thick{stroke-width:3.5px;}#dgm29 .edge-pattern-solid{stroke-dasharray:0;}#dgm29 .edge-pattern-dashed{stroke-dasharray:3;}#dgm29 .edge-pattern-dotted{stroke-dasharray:2;}#dgm29 .marker{fill:#666;stroke:#666;}#dgm29 .marker.cross{stroke:#666;}#dgm29 svg{font-family:Arial,"Liberation Sans",Helvetica,sans-serif;font-size:16px;}#dgm29 .label{font-family:Arial,"Liberation Sans",Helvetica,sans-serif;color:#000000;}#dgm29 .cluster-label text{fill:#333;}#dgm29 .cluster-label span,#dgm29 p{color:#333;}#dgm29 .label text,#dgm29 span,#dgm29 p{fill:#000000;color:#000000;}#dgm29 .node rect,#dgm29 .node circle,#dgm29 .node ellipse,#dgm29 .node polygon,#dgm29 .node path{fill:#eee;stroke:#999;stroke-width:1px;}#dgm29 .flowchart-label text{text-anchor:middle;}#dgm29 .node .katex path{fill:#000;stroke:#000;stroke-width:1px;}#dgm29 .node .label{text-align:center;}#dgm29 .node.clickable{cursor:pointer;}#dgm29 .arrowheadPath{fill:#333333;}#dgm29 .edgePath .path{stroke:#666;stroke-width:2.0px;}#dgm29 .flowchart-link{stroke:#666;fill:none;}#dgm29 .edgeLabel{background-color:white;text-align:center;}#dgm29 .edgeLabel rect{opacity:0.5;background-color:white;fill:white;}#dgm29 .labelBkg{background-color:rgba(255, 255, 255, 0.5);}#dgm29 .cluster rect{fill:hsl(0, 0%, 98.9215686275%);stroke:#707070;stroke-width:1px;}#dgm29 .cluster text{fill:#333;}#dgm29 .cluster span,#dgm29 p{color:#333;}#dgm29 div.mermaidTooltip{position:absolute;text-align:center;max-width:200px;padding:2px;font-family:Arial,"Liberation Sans",Helvetica,sans-serif;font-size:12px;background:hsl(-160, 0%, 93.3333333333%);border:1px solid #707070;border-radius:2px;pointer-events:none;z-index:100;}#dgm29 .flowchartTitleText{text-anchor:middle;font-size:18px;fill:#000000;}#dgm29 :root{--mermaid-font-family:Arial,"Liberation Sans",Helvetica,sans-serif;}#dgm29 .store rect{fill:rgb(230, 238, 248)!important;stroke:rgb(59, 110, 165)!important;color:rgb(17, 17, 17)!important;}#dgm29 .store polygon{fill:rgb(230, 238, 248)!important;stroke:rgb(59, 110, 165)!important;color:rgb(17, 17, 17)!important;}#dgm29 .store ellipse{fill:rgb(230, 238, 248)!important;stroke:rgb(59, 110, 165)!important;color:rgb(17, 17, 17)!important;}#dgm29 .store circle{fill:rgb(230, 238, 248)!important;stroke:rgb(59, 110, 165)!important;color:rgb(17, 17, 17)!important;}#dgm29 .store path{fill:rgb(230, 238, 248)!important;stroke:rgb(59, 110, 165)!important;color:rgb(17, 17, 17)!important;}#dgm29 .store tspan{fill:rgb(17, 17, 17)!important;}</style><g><marker id="dgm29_flowchart-pointEnd" class="marker flowchart" viewBox="0 0 10 10" refX="6" refY="5" markerUnits="userSpaceOnUse" markerWidth="12" markerHeight="12" orient="auto"><path d="M 0 0 L 10 5 L 0 10 z" class="arrowMarkerPath" style="stroke-width: 1; stroke-dasharray: 1, 0;"></path></marker><marker id="dgm29_flowchart-pointStart" class="marker flowchart" viewBox="0 0 10 10" refX="4.5" refY="5" markerUnits="userSpaceOnUse" markerWidth="12" markerHeight="12" orient="auto"><path d="M 0 5 L 10 10 L 10 0 z" class="arrowMarkerPath" style="stroke-width: 1; stroke-dasharray: 1, 0;"></path></marker><marker id="dgm29_flowchart-circleEnd" class="marker flowchart" viewBox="0 0 10 10" refX="11" refY="5" markerUnits="userSpaceOnUse" markerWidth="11" markerHeight="11" orient="auto"><circle cx="5" cy="5" r="5" class="arrowMarkerPath" style="stroke-width: 1; stroke-dasharray: 1, 0;"></circle></marker><marker id="dgm29_flowchart-circleStart" class="marker flowchart" viewBox="0 0 10 10" refX="-1" refY="5" markerUnits="userSpaceOnUse" markerWidth="11" markerHeight="11" orient="auto"><circle cx="5" cy="5" r="5" class="arrowMarkerPath" style="stroke-width: 1; stroke-dasharray: 1, 0;"></circle></marker><marker id="dgm29_flowchart-crossEnd" class="marker cross flowchart" viewBox="0 0 11 11" refX="12" refY="5.2" markerUnits="userSpaceOnUse" markerWidth="11" markerHeight="11" orient="auto"><path d="M 1,1 l 9,9 M 10,1 l -9,9" class="arrowMarkerPath" style="stroke-width: 2; stroke-dasharray: 1, 0;"></path></marker><marker id="dgm29_flowchart-crossStart" class="marker cross flowchart" viewBox="0 0 11 11" refX="-1" refY="5.2" markerUnits="userSpaceOnUse" markerWidth="11" markerHeight="11" orient="auto"><path d="M 1,1 l 9,9 M 10,1 l -9,9" class="arrowMarkerPath" style="stroke-width: 2; stroke-dasharray: 1, 0;"></path></marker><g class="root"><g class="clusters"></g><g class="edgePaths"><path d="M136.844,131.456L141.01,131.456C145.177,131.456,153.51,131.456,165.732,135.587C177.954,139.718,194.065,147.98,202.12,152.11L210.176,156.241" id="L-K-RT-0" class="edge-thickness-normal edge-pattern-solid flowchart-link LS-K LE-RT" style="fill:none;" marker-end="url(#dgm29_flowchart-pointEnd)"></path><path d="M317.603,152.951L343.612,134.976C369.62,117.002,421.638,81.052,467.907,63.078C514.176,45.103,554.696,45.103,574.956,45.103L595.216,45.103" id="L-RT-RS-0" class="edge-thickness-normal edge-pattern-solid flowchart-link LS-RT LE-RS" style="fill:none;" marker-end="url(#dgm29_flowchart-pointEnd)"></path><path d="M350.859,186.208L371.326,186.124C391.792,186.041,432.724,185.874,472.856,185.791C512.989,185.708,552.321,185.708,571.987,185.708L591.653,185.708" id="L-RT-HS-0" class="edge-thickness-normal edge-pattern-solid flowchart-link LS-RT LE-HS" style="fill:none;" marker-end="url(#dgm29_flowchart-pointEnd)"></path><path d="M317.74,219.327L343.726,236.996C369.712,254.664,421.684,290.001,469.266,307.67C516.848,325.338,560.04,325.338,581.635,325.338L603.231,325.338" id="L-RT-DS-0" class="edge-thickness-normal edge-pattern-solid flowchart-link LS-RT LE-DS" style="fill:none;" marker-end="url(#dgm29_flowchart-pointEnd)"></path><path d="M129.297,239.959L134.721,239.959C140.146,239.959,150.995,239.959,164.469,235.983C177.942,232.007,194.041,224.055,202.091,220.079L210.14,216.103" id="L-DIR-RT-0" class="edge-thickness-normal edge-pattern-solid flowchart-link LS-DIR LE-RT" style="fill:none;" marker-end="url(#dgm29_flowchart-pointEnd)"></path></g><g class="edgeLabels"><g class="edgeLabel"><g class="label" transform="translate(0, 0)"><rect rx="0" ry="0" width="0" height="0"></rect><text style=""><tspan xml:space="preserve" dy="1em" x="0" class="row"></tspan></text></g></g><g class="edgeLabel" transform="translate(473.65625, 45.10297393798828)"><g class="label" transform="translate(-98.296875, -8.5)"><rect rx="0" ry="0" width="196.41334533691406" height="17.000614166259766"></rect><text style=""><tspan xml:space="preserve" dy="1em" x="0" class="row">range: key between bounds</tspan></text></g></g><g class="edgeLabel" transform="translate(473.65625, 185.70766067504883)"><g class="label" transform="translate(-79.6015625, -8.5)"><rect rx="0" ry="0" width="159.0526123046875" height="17.000614166259766"></rect><text style=""><tspan xml:space="preserve" dy="1em" x="0" class="row">hash: hash key mod N</tspan></text></g></g><g class="edgeLabel" transform="translate(473.65625, 325.3382110595703)"><g class="label" transform="translate(-78.31640625, -8.5)"><rect rx="0" ry="0" width="156.49441528320312" height="17.000614166259766"></rect><text style=""><tspan xml:space="preserve" dy="1em" x="0" class="row">directory: lookup table</tspan></text></g></g><g class="edgeLabel"><g class="label" transform="translate(0, 0)"><rect rx="0" ry="0" width="0" height="0"></rect><text style=""><tspan xml:space="preserve" dy="1em" x="0" class="row"></tspan></text></g></g></g><g class="nodes"><g class="node default default flowchart-label" id="flowchart-K-563" data-node="true" data-id="K" transform="translate(68.421875, 131.45614051818848)"><rect class="basic label-container" style="" rx="0" ry="0" x="-68.421875" y="-16" width="136.84375" height="32"></rect><g class="label" style="" transform="translate(0, -8.5)"><rect></rect><text style=""><tspan xml:space="preserve" dy="1em" x="0" class="row">Request with key</tspan></text></g></g><g class="node default default flowchart-label" id="flowchart-RT-564" data-node="true" data-id="RT" transform="translate(268.6015625, 185.70766067504883)"><polygon points="81.7578125,0 163.515625,-81.7578125 81.7578125,-163.515625 0,-81.7578125" class="label-container" transform="translate(-81.7578125,81.7578125)" style=""></polygon><g class="label" style="" transform="translate(0, -8.5)"><rect></rect><text style=""><tspan xml:space="preserve" dy="1em" x="0" class="row">Routing strategy</tspan></text></g></g><g class="node default store flowchart-label" id="flowchart-RS-566" data-node="true" data-id="RS" transform="translate(680.953125, 45.10297393798828)"><path style="" d="M 0,14.068648885002188 a 80.4375,14.068648885002188 0,0,0 160.875 0 a 80.4375,14.068648885002188 0,0,0 -160.875 0 l 0,62.06864888500219 a 80.4375,14.068648885002188 0,0,0 160.875 0 l 0,-62.06864888500219" transform="translate(-80.4375,-45.102973327503285)"></path><g class="label" style="" transform="translate(0, -16.5)"><rect></rect><text style=""><tspan xml:space="preserve" dy="1em" x="0" class="row">Shard by range</tspan><tspan xml:space="preserve" dy="1em" x="0" class="row">good scans, hot tails</tspan></text></g></g><g class="node default store flowchart-label" id="flowchart-HS-568" data-node="true" data-id="HS" transform="translate(680.953125, 185.70766067504883)"><path style="" d="M 0,14.334470989761094 a 84,14.334470989761094 0,0,0 168 0 a 84,14.334470989761094 0,0,0 -168 0 l 0,62.334470989761094 a 84,14.334470989761094 0,0,0 168 0 l 0,-62.334470989761094" transform="translate(-84,-45.501706484641645)"></path><g class="label" style="" transform="translate(0, -16.5)"><rect></rect><text style=""><tspan xml:space="preserve" dy="1em" x="0" class="row">Shard by hash</tspan><tspan xml:space="preserve" dy="1em" x="0" class="row">even, no range scans</tspan></text></g></g><g class="node default store flowchart-label" id="flowchart-DS-570" data-node="true" data-id="DS" transform="translate(680.953125, 325.3382110595703)"><path style="" d="M 0,13.419224088013898 a 72.421875,13.419224088013898 0,0,0 144.84375 0 a 72.421875,13.419224088013898 0,0,0 -144.84375 0 l 0,61.4192240880139 a 72.421875,13.419224088013898 0,0,0 144.84375 0 l 0,-61.4192240880139" transform="translate(-72.421875,-44.12883613202085)"></path><g class="label" style="" transform="translate(0, -16.5)"><rect></rect><text style=""><tspan xml:space="preserve" dy="1em" x="0" class="row">Shard by directory</tspan><tspan xml:space="preserve" dy="1em" x="0" class="row">policy placement</tspan></text></g></g><g class="node default store flowchart-label" id="flowchart-DIR-571" data-node="true" data-id="DIR" transform="translate(68.421875, 239.95918083190918)"><path style="" d="M 0,12.335359675785206 a 60.875,12.335359675785206 0,0,0 121.75 0 a 60.875,12.335359675785206 0,0,0 -121.75 0 l 0,60.335359675785206 a 60.875,12.335359675785206 0,0,0 121.75 0 l 0,-60.335359675785206" transform="translate(-60.875,-42.503039513677805)"></path><g class="label" style="" transform="translate(0, -16.5)"><rect></rect><text style=""><tspan xml:space="preserve" dy="1em" x="0" class="row">Directory</tspan><tspan xml:space="preserve" dy="1em" x="0" class="row">tenant to shard</tspan></text></g></g></g></g></g></svg>